SplineFontDB: 1.0
FontName: FormalScript
FullName: FormalScript
FamilyName: Formal
Weight: Medium
Copyright: The splines of this font are copyright © 1988 by George Williams.
Version: 001.000
ItalicAngle: 0
UnderlinePosition: -89
UnderlineWidth: 13
Ascent: 800
Descent: 200
NeedsXUIDChange: 1
ScriptLang: 3
 1 latn 2 FRA  dflt 
 1 latn 1 FRA  
 0 
ChainSub: coverage 0 0 'calt' 0 0 0 1
 1 1 0
  Coverage: 68 a b c d e f g h i j k l m n o p q r s t u v w x y z germandbls r.alt
  BCoverage: 50 b b.high o o.high r.alt r.alt.high v v.alt w w.alt
 1
  SeqLookup: 0 'high'
EndFPST
GenTags: 1 sb'high'
Encoding: adobestandard
DisplaySize: -36
AntiAlias: 1
FitToEm: 1
WinInfo: 240 16 4
BeginPrivate: 8
BlueValues 23 [-27 5 269 292 553 574]
BlueScale 11 0.022727273
StdHW 4 [20]
StdVW 4 [16]
StemSnapH 7 [15 20]
StemSnapV 7 [16 26]
ForceBoldThreshold 2 .5
ForceBold 5 false
EndPrivate
BeginChars: 289 164
StartChar: exclam
Encoding: 33 33 2
Width: 211
Flags: HW
Fore
149 41 m 0
 148 -17 67 -17 63 41 c 0
 59 103 151 114 149 41 c 0
191 179 m 0
 257 286 337 398 410 501 c 0
 485 606 584 742 626 753 c 0
 643 758 654 764 672 764 c 0
 683 764 690 758 700 753 c 0
 739 735 601 593 522 501 c 0
 440 405 324 271 239 179 c 0
 223 161 212 145 189 145 c 0
 175 145 183 167 191 179 c 0
EndSplineSet
EndChar
StartChar: quoteright
Encoding: 39 8217 95
Width: 123
Flags: HW
Fore
436 529 m 0
 443 477 399 411 347 425 c 0
 337 427 332 429 324 435 c 1
 329 437 333 443 339 441 c 0
 355 436 395 438 407 495 c 0
 408 501 404 502 402 506 c 1
 398 501 395 499 389 498 c 0
 365 491 354 529 372 549 c 0
 394 574 432 557 436 529 c 0
EndSplineSet
EndChar
StartChar: parenleft
Encoding: 40 40 3
Width: 266
Flags: W
Fore
268 475 m 0
 283 479 295 475 312 472 c 1
 315 456 l 1
 301 456 293 457 280 453 c 0
 59 387 -63 -7 106 -187 c 0
 115 -197 123 -200 135 -207 c 1
 124 -219 l 1
 108 -213 97 -210 84 -199 c 0
 -108 -28 -15 389 268 475 c 0
EndSplineSet
EndChar
StartChar: parenright
Encoding: 41 41 4
Width: 266
Flags: W
Fore
15 -219 m 0
 -1 -222 -12 -219 -29 -217 c 1
 -32 -201 l 1
 -18 -201 -10 -202 2 -198 c 0
 238 -126 330 275 171 443 c 1
 163 453 155 457 143 464 c 1
 153 476 l 1
 170 469 182 467 193 457 c 1
 395 242 267 -167 15 -219 c 0
EndSplineSet
EndChar
StartChar: comma
Encoding: 44 44 5
Width: 123
Flags: HW
Fore
102 25 m 0
 109 -27 65 -93 13 -79 c 0
 3 -77 -2 -75 -10 -69 c 1
 -5 -67 -1 -61 5 -63 c 0
 21 -68 61 -66 73 -9 c 0
 74 -3 70 -2 68 2 c 1
 64 -3 61 -5 55 -6 c 0
 31 -13 20 25 38 45 c 0
 60 70 98 53 102 25 c 0
EndSplineSet
EndChar
StartChar: hyphen
Encoding: 45 45 6
Width: 177
Flags: W
Fore
42 163 m 1
 205 163 l 1
 194 140 l 1
 31 140 l 1
 42 163 l 1
EndSplineSet
EndChar
StartChar: period
Encoding: 46 46 7
Width: 152
Flags: HW
Fore
7 35 m 0
 7 84 81 84 81 35 c 0
 81 -13 7 -13 7 35 c 0
EndSplineSet
EndChar
StartChar: zero
Encoding: 48 48 8
Width: 229
Flags: HW
Fore
56 -24 m 0
 22 -21 -1 -2 3 40 c 0
 7 100 121 271 239 272 c 0
 269 273 284 242 282 205 c 0
 277 125 109 -29 56 -24 c 0
225 238 m 0
 150 241 31 66 33 19 c 0
 33 11 41 0 53 -3 c 0
 111 -16 246 160 246 201 c 0
 246 217 242 237 225 238 c 0
EndSplineSet
EndChar
StartChar: one
Encoding: 49 49 9
Width: 182
Flags: HW
Fore
42 13 m 1
 56 19 65 23 77 32 c 0
 122 67 130 123 166 180 c 0
 172 189 176 196 182 205 c 1
 153 181 137 167 107 143 c 0
 84 123 71 113 47 93 c 1
 39 100 l 1
 63 119 75 132 99 151 c 0
 137 181 159 203 198 236 c 0
 211 247 216 257 231 264 c 0
 240 267 246 269 255 269 c 1
 241 255 233 245 221 228 c 0
 196 192 196 163 179 124 c 0
 157 71 132 46 83 12 c 0
 70 3 60 2 45 -1 c 1
 42 13 l 1
EndSplineSet
EndChar
StartChar: two
Encoding: 50 50 10
Width: 299
Flags: W
Fore
252 57 m 2
 255 58 l 1
 252 46 l 1
 227 19 206 5 167 5 c 0
 139 6 125 21 97 23 c 0
 67 24 66 1 20 9 c 2
 -4 13 l 1
 23 29 l 2
 122 87 245 166 247 219 c 0
 247 241 251 269 218 267 c 0
 163 264 106 206 110 173 c 0
 111 163 121 156 131 157 c 0
 153 159 163 175 179 192 c 0
 193 208 200 220 207 240 c 1
 217 229 l 1
 209 211 200 203 189 185 c 0
 174 161 151 141 125 139 c 0
 107 137 87 142 87 168 c 0
 85 232 159 289 229 289 c 0
 261 289 289 271 284 227 c 0
 277 163 224 124 161 89 c 2
 95 52 l 1
 125 57 l 2
 143 59 152 44 171 41 c 0
 203 37 224 41 252 57 c 2
EndSplineSet
EndChar
StartChar: three
Encoding: 51 51 11
Width: 261
Flags: W
Fore
201 240 m 1
 208 236 l 1
 201 219 195 209 181 197 c 0
 171 188 166 182 153 179 c 0
 131 173 111 178 111 205 c 0
 111 243 164 276 213 283 c 0
 256 289 285 268 288 243 c 0
 292 215 268 189 236 172 c 0
 227 167 221 165 211 163 c 1
 219 161 223 159 229 153 c 0
 238 145 239 135 239 123 c 0
 237 64 163 5 89 1 c 0
 49 -1 -1 16 0 57 c 0
 1 109 62 125 76 93 c 0
 90 61 49 45 41 64 c 0
 39 69 39 73 40 79 c 1
 31 77 22 82 17 68 c 0
 8 41 41 14 85 16 c 0
 145 19 197 79 200 119 c 0
 201 136 198 158 161 141 c 0
 153 137 147 137 140 131 c 1
 133 145 l 1
 151 151 161 156 177 165 c 0
 210 184 245 197 249 229 c 0
 252 250 242 258 225 259 c 0
 180 260 129 226 129 209 c 0
 130 189 144 191 159 196 c 0
 169 200 175 205 183 213 c 0
 192 223 196 229 201 240 c 1
EndSplineSet
EndChar
StartChar: four
Encoding: 52 52 12
Width: 341
Flags: W
Fore
69 28 m 1
 57 28 50 33 37 32 c 0
 26 31 13 26 16 15 c 0
 17 9 23 8 29 7 c 0
 47 2 59 13 69 28 c 1
190 39 m 1
 205 63 214 85 237 107 c 0
 265 133 287 145 325 144 c 1
 294 129 279 113 261 83 c 0
 252 67 248 55 243 39 c 1
 261 39 282 36 299 51 c 1
 293 15 261 25 237 23 c 1
 225 -5 212 -35 181 -61 c 0
 147 -91 117 -104 73 -92 c 1
 107 -77 129 -66 152 -37 c 0
 168 -17 173 7 183 23 c 1
 156 25 121 25 93 26 c 1
 75 11 63 -5 39 -7 c 0
 16 -8 -7 4 0 25 c 0
 6 42 23 45 40 47 c 0
 57 48 69 43 83 43 c 1
 160 119 226 191 317 285 c 1
 331 269 l 1
 245 179 191 116 111 41 c 1
 135 41 166 39 190 39 c 1
EndSplineSet
EndChar
StartChar: five
Encoding: 53 53 13
Width: 289
Flags: HW
Fore
41 77 m 1
 25 73 17 59 21 40 c 0
 27 14 53 13 79 13 c 0
 135 13 227 93 216 139 c 0
 209 169 166 179 144 155 c 2
 108 115 l 1
 100 120 l 1
 237 287 l 1
 253 271 260 252 281 252 c 0
 313 252 329 268 356 284 c 1
 367 283 l 1
 339 249 313 217 280 217 c 0
 253 217 241 229 221 243 c 1
 165 180 l 1
 185 188 198 189 219 185 c 0
 255 179 276 149 261 115 c 0
 230 41 158 -3 72 -3 c 0
 35 -3 0 8 0 48 c 0
 0 84 23 107 55 107 c 0
 68 107 76 88 75 75 c 0
 73 62 66 49 52 52 c 0
 40 55 35 67 41 77 c 1
EndSplineSet
EndChar
StartChar: six
Encoding: 54 54 14
Width: 266
Flags: W
Fore
77 27 m 0
 141 27 221 142 224 197 c 0
 225 215 217 229 181 224 c 0
 127 217 94 184 65 136 c 0
 15 51 57 27 77 27 c 0
115 233 m 1
 142 247 172 255 200 256 c 0
 240 257 259 228 259 195 c 0
 259 117 143 -3 64 -3 c 0
 19 -2 -1 28 0 64 c 0
 2 220 195 417 346 421 c 0
 362 421 373 416 389 411 c 1
 389 395 l 1
 376 397 368 397 355 397 c 0
 267 398 175 321 115 233 c 1
EndSplineSet
EndChar
StartChar: seven
Encoding: 55 55 15
Width: 139
Flags: HW
Fore
63 220 m 2
 43 195 l 1
 27 205 l 1
 96 307 l 1
 107 299 l 1
 87 273 l 1
 96 281 103 283 115 285 c 0
 169 293 149 232 171 227 c 0
 180 225 186 227 195 229 c 1
 224 269 l 1
 232 248 l 1
 -69 -155 l 1
 -101 -123 l 1
 173 203 l 1
 165 199 161 198 152 197 c 0
 103 194 126 245 99 243 c 0
 82 241 73 233 63 220 c 2
EndSplineSet
EndChar
StartChar: eight
Encoding: 56 56 16
Width: 208
Flags: HW
Fore
107 141 m 1
 71 112 28 71 28 33 c 0
 28 12 52 4 73 11 c 0
 107 21 133 64 133 85 c 0
 133 115 119 122 107 141 c 1
121 181 m 1
 147 203 179 217 207 234 c 2
 207 235 l 1
 201 249 193 260 177 257 c 0
 143 252 117 213 121 181 c 1
221 242 m 1
 253 258 287 265 329 267 c 1
 337 255 l 1
 293 257 265 247 224 226 c 1
 227 208 227 191 227 169 c 1
 219 161 l 1
 219 183 215 199 212 217 c 1
 185 199 158 180 134 162 c 1
 148 148 172 127 172 96 c 0
 172 42 127 -9 64 -11 c 0
 31 -11 0 -3 0 35 c 0
 0 89 57 127 96 162 c 1
 90 173 86 181 85 195 c 0
 85 239 111 270 153 284 c 0
 212 303 221 242 221 242 c 1
EndSplineSet
EndChar
StartChar: nine
Encoding: 57 57 17
Width: 271
Flags: W
Fore
225 197 m 0
 225 217 218 239 197 239 c 0
 119 239 39 116 39 69 c 0
 39 48 56 34 78 34 c 0
 103 34 225 103 225 197 c 0
171 67 m 1
 171 67 111 10 66 10 c 0
 33 10 11 29 7 61 c 0
 -3 169 113 269 202 269 c 0
 241 269 266 241 266 202 c 0
 266 49 63 -183 -94 -153 c 0
 -106 -151 -112 -149 -123 -145 c 1
 -123 -129 l 1
 -110 -131 -102 -131 -89 -131 c 0
 -72 -131 -63 -132 -46 -129 c 0
 -11 -122 7 -107 37 -86 c 0
 79 -56 98 -31 130 10 c 0
 147 31 159 48 171 67 c 1
EndSplineSet
EndChar
StartChar: colon
Encoding: 58 58 18
Width: 109
Flags: HW
Fore
101 213 m 0
 101 262 175 262 175 213 c 0
 175 165 101 165 101 213 c 0
2 35 m 0
 2 84 75 84 75 35 c 0
 75 -13 2 -13 2 35 c 0
EndSplineSet
EndChar
StartChar: semicolon
Encoding: 59 59 19
Width: 129
Flags: HW
Fore
95 25 m 0
 103 -27 58 -93 6 -79 c 0
 -3 -77 -9 -75 -17 -69 c 1
 -11 -67 -8 -61 -2 -63 c 0
 14 -68 55 -66 66 -9 c 0
 67 -3 63 -2 61 2 c 1
 57 -3 55 -5 49 -6 c 0
 24 -13 13 25 31 45 c 0
 53 70 91 53 95 25 c 0
95 213 m 0
 95 262 168 262 168 213 c 0
 168 165 95 165 95 213 c 0
EndSplineSet
EndChar
StartChar: question
Encoding: 63 63 20
Width: 340
Flags: HW
Fore
53 35 m 0
 53 84 126 84 126 35 c 0
 126 -13 53 -13 53 35 c 0
285 237 m 0
 227 196 208 157 157 107 c 1
 131 80 l 1
 117 93 l 1
 141 123 l 2
 201 196 201 269 306 302 c 0
 359 319 412 341 417 386 c 0
 421 415 394 437 371 438 c 0
 307 439 241 400 239 363 c 0
 237 335 260 337 280 345 c 0
 295 350 302 358 313 369 c 0
 325 381 332 391 339 406 c 1
 349 401 l 1
 339 377 330 364 311 347 c 0
 298 335 290 325 273 321 c 0
 242 313 213 319 213 358 c 0
 213 423 283 470 354 477 c 0
 415 483 459 448 463 413 c 0
 468 373 467 305 388 274 c 0
 348 259 321 262 285 237 c 0
EndSplineSet
EndChar
StartChar: A
Encoding: 65 65 21
Width: 798
Flags: W
Fore
601 269 m 1
 616 287 625 298 640 316 c 0
 704 391 741 439 816 500 c 0
 833 514 843 521 861 533 c 1
 850 531 843 531 832 525 c 0
 716 461 631 371 545 281 c 1
 548 271 549 259 550 247 c 1
 564 257 591 266 601 269 c 1
551 232 m 1
 551 225 549 207 547 199 c 0
 543 168 526 130 501 129 c 0
 464 129 485 181 509 213 c 0
 515 221 528 235 535 237 c 1
 535 245 533 259 531 267 c 1
 509 244 473 207 449 184 c 0
 341 81 256 -1 115 -2 c 0
 60 -2 11 35 8 90 c 0
 7 111 12 138 35 140 c 0
 48 141 63 129 59 116 c 0
 56 109 51 105 43 104 c 0
 37 103 31 105 27 108 c 1
 21 89 23 74 31 56 c 0
 45 23 78 15 115 12 c 0
 269 1 427 187 463 224 c 0
 481 243 506 268 524 287 c 1
 503 333 459 365 375 364 c 0
 300 363 249 339 203 280 c 0
 181 251 171 231 163 196 c 1
 157 196 l 1
 158 216 159 228 167 246 c 0
 211 347 318 394 416 378 c 0
 466 369 513 351 537 299 c 1
 651 419 768 530 877 562 c 0
 897 568 909 569 931 572 c 1
 931 560 l 1
 919 555 911 553 901 546 c 0
 837 503 706 380 633 238 c 0
 591 157 499 11 571 13 c 0
 666 15 787 189 737 192 c 0
 683 195 659 145 634 102 c 0
 624 85 618 76 611 58 c 1
 612 74 612 83 619 98 c 0
 645 155 683 208 729 208 c 0
 826 208 677 -11 557 -2 c 0
 475 5 532 133 567 208 c 0
 573 223 578 231 587 244 c 1
 578 243 558 235 551 232 c 1
535 220 m 1
 528 216 523 209 520 204 c 0
 507 185 487 145 504 146 c 0
 520 147 527 169 531 187 c 0
 532 192 536 213 535 220 c 1
EndSplineSet
EndChar
StartChar: B
Encoding: 66 66 22
Width: 747
Flags: W
Fore
623 301 m 0
 610 299 590 299 593 287 c 0
 596 275 611 279 623 280 c 0
 635 281 650 287 661 293 c 1
 651 301 635 303 623 301 c 0
381 554 m 1
 370 559 354 564 341 566 c 0
 223 582 120 494 75 374 c 0
 65 349 66 333 66 306 c 1
 51 306 l 1
 49 325 48 337 53 356 c 0
 88 492 216 606 355 578 c 0
 369 575 385 569 395 563 c 1
 457 602 523 622 589 624 c 0
 681 627 747 601 780 555 c 1
 789 559 801 563 809 566 c 0
 816 569 820 570 827 572 c 1
 825 554 l 1
 811 549 799 545 789 540 c 1
 807 508 809 465 796 422 c 0
 779 363 736 322 691 295 c 1
 709 279 721 251 721 218 c 0
 721 153 613 1 509 -8 c 0
 446 -13 405 22 433 77 c 0
 443 97 489 172 565 167 c 2
 585 165 l 1
 583 152 l 1
 565 153 l 2
 509 157 474 117 449 70 c 0
 423 23 470 3 511 10 c 0
 594 23 685 159 689 240 c 0
 689 265 681 273 673 285 c 1
 661 279 644 271 633 267 c 0
 611 259 573 265 577 288 c 0
 580 309 610 313 635 313 c 0
 649 313 665 309 676 303 c 1
 731 346 773 434 775 476 c 0
 776 495 773 514 767 529 c 1
 676 482 638 418 578 330 c 0
 461 158 299 -37 99 -12 c 0
 55 -7 14 13 11 56 c 0
 9 72 12 87 27 96 c 0
 41 105 55 105 64 99 c 0
 85 83 71 63 47 73 c 0
 44 75 42 78 41 82 c 1
 38 80 26 83 26 66 c 0
 26 12 97 3 151 5 c 0
 313 11 413 183 523 326 c 0
 597 423 673 501 760 545 c 1
 737 581 691 604 627 606 c 0
 555 609 476 593 409 555 c 1
 537 459 419 160 261 176 c 0
 149 187 209 385 285 469 c 0
 314 502 349 532 381 554 c 1
289 449 m 0
 219 355 173 183 279 192 c 0
 434 205 508 466 395 546 c 1
 357 522 319 489 289 449 c 0
EndSplineSet
EndChar
StartChar: C
Encoding: 67 67 23
Width: 453
Flags: W
Fore
129 337 m 1
 11 359 29 494 143 522 c 0
 159 526 169 525 185 520 c 1
 185 508 l 1
 169 512 159 512 143 507 c 0
 63 481 27 366 141 353 c 1
 283 528 513 616 594 600 c 0
 759 567 511 339 179 334 c 1
 109 249 61 157 59 90 c 0
 57 42 88 -1 149 5 c 0
 331 24 459 246 375 264 c 0
 299 280 245 200 197 134 c 0
 182 114 178 100 170 77 c 1
 159 62 l 1
 161 83 163 101 170 116 c 0
 211 211 283 296 369 283 c 0
 509 261 343 -9 137 -12 c 0
 65 -13 18 37 29 106 c 0
 42 194 79 271 129 337 c 1
195 353 m 1
 347 353 625 469 627 560 c 0
 627 582 595 587 573 587 c 0
 432 587 292 458 195 353 c 1
EndSplineSet
EndChar
StartChar: D
Encoding: 68 68 24
Width: 709
Flags: HW
Fore
231 26 m 1
 175 47 130 71 95 69 c 0
 23 66 40 7 136 13 c 0
 171 15 202 20 231 26 c 1
699 410 m 1
 602 343 584 206 481 129 c 0
 419 83 352 49 288 27 c 1
 319 18 352 12 386 16 c 0
 631 42 745 258 699 410 c 1
715 421 m 1
 774 251 649 5 372 0 c 0
 330 -1 291 7 257 17 c 1
 211 4 165 -3 124 -4 c 0
 29 -6 -17 80 104 87 c 0
 147 90 201 57 263 35 c 1
 329 55 381 90 444 144 c 0
 528 216 577 368 690 434 c 1
 657 511 580 566 455 563 c 0
 113 554 -31 145 239 155 c 0
 477 163 520 454 396 436 c 0
 341 428 307 411 272 368 c 0
 255 347 248 333 240 308 c 1
 228 292 l 1
 232 326 241 347 260 375 c 0
 295 427 334 450 396 452 c 0
 575 458 477 137 233 136 c 0
 -71 135 90 575 457 580 c 0
 588 582 670 523 707 443 c 1
 715 447 723 451 732 453 c 1
 747 459 757 461 772 464 c 1
 776 444 l 1
 763 441 757 439 744 434 c 0
 734 430 725 426 715 421 c 1
EndSplineSet
EndChar
StartChar: E
Encoding: 69 69 25
Width: 560
Flags: W
Fore
304 364 m 1
 308 352 315 342 328 336 c 0
 335 333 349 331 350 340 c 0
 351 347 343 349 336 354 c 0
 327 359 316 363 304 364 c 1
287 364 m 1
 197 358 63 257 56 144 c 0
 49 42 111 15 184 10 c 0
 316 0 445 125 450 220 c 0
 453 269 423 279 388 281 c 0
 321 285 192 173 172 94 c 0
 169 81 169 72 170 58 c 1
 162 68 l 1
 161 81 160 87 161 100 c 0
 166 168 285 303 388 300 c 0
 439 299 469 273 467 215 c 0
 464 127 337 -8 200 -4 c 0
 104 -1 19 35 18 144 c 0
 17 252 152 384 283 381 c 1
 281 397 283 414 287 434 c 0
 309 540 417 595 529 595 c 0
 594 595 649 553 650 490 c 0
 651 406 573 333 481 326 c 0
 443 323 407 345 405 383 c 0
 403 425 449 478 496 496 c 0
 519 505 535 504 558 499 c 1
 558 491 l 1
 539 493 527 491 508 485 c 0
 459 468 419 417 421 384 c 0
 423 355 455 340 484 342 c 0
 563 347 633 415 634 488 c 0
 635 544 589 579 521 579 c 0
 455 578 315 506 304 428 c 0
 302 412 300 395 301 380 c 1
 313 379 325 376 336 372 c 0
 355 365 383 341 368 326 c 0
 357 315 340 316 324 323 c 0
 305 330 293 344 287 364 c 1
EndSplineSet
EndChar
StartChar: F
Encoding: 70 70 26
Width: 644
Flags: HW
Fore
729 487 m 1
 775 499 863 533 861 573 c 0
 861 581 851 579 845 577 c 0
 831 573 777 532 729 487 c 1
654 282 m 1
 674 289 689 299 696 309 c 0
 701 318 697 322 688 321 c 0
 675 321 664 302 654 282 c 1
499 253 m 1
 544 313 581 359 640 428 c 0
 653 443 667 458 682 473 c 1
 647 478 610 503 607 545 c 0
 603 588 568 593 534 595 c 0
 416 601 252 479 247 379 c 0
 245 327 281 306 322 305 c 0
 397 303 501 417 510 475 c 0
 512 486 515 493 511 504 c 0
 509 511 507 515 502 520 c 1
 504 524 l 1
 513 517 519 510 523 499 c 0
 527 485 525 476 524 462 c 0
 519 389 405 289 323 289 c 0
 274 289 224 313 227 373 c 0
 233 481 386 612 536 610 c 0
 587 609 642 585 641 530 c 0
 640 507 653 483 691 481 c 1
 753 541 823 592 847 593 c 0
 873 593 875 582 875 567 c 0
 873 528 775 482 714 473 c 1
 707 466 700 459 693 451 c 0
 637 391 589 318 547 257 c 1
 577 261 608 267 633 275 c 1
 637 282 640 290 644 299 c 0
 655 322 672 342 696 340 c 0
 705 339 715 335 716 326 c 0
 720 299 688 276 643 259 c 1
 638 249 633 239 627 233 c 0
 615 221 606 213 592 202 c 1
 570 204 l 1
 588 215 597 223 611 239 c 0
 615 243 618 247 621 251 c 1
 592 243 561 237 531 233 c 1
 509 200 488 172 470 154 c 0
 379 61 307 0 178 -3 c 0
 81 -5 6 39 7 95 c 0
 7 115 12 131 30 140 c 0
 42 146 53 150 64 142 c 0
 80 131 75 107 50 112 c 0
 43 113 40 117 38 124 c 1
 33 123 30 121 27 117 c 0
 21 111 21 105 21 96 c 0
 23 35 110 11 177 13 c 0
 299 18 369 80 443 177 c 0
 457 196 469 213 481 229 c 1
 417 225 353 219 329 173 c 0
 327 168 326 165 324 159 c 1
 315 156 l 1
 314 162 313 165 315 171 c 0
 328 235 420 247 499 253 c 1
EndSplineSet
EndChar
StartChar: G
Encoding: 71 71 27
Width: 579
Flags: HW
Fore
377 315 m 1
 545 326 768 510 769 540 c 0
 770 559 755 567 739 565 c 0
 616 551 463 421 377 315 c 1
523 230 m 1
 569 260 605 291 606 307 c 0
 606 315 601 315 597 315 c 0
 578 314 554 277 523 230 c 1
459 193 m 1
 513 263 565 331 599 331 c 0
 616 331 616 321 619 309 c 0
 623 289 570 243 507 205 c 1
 482 167 453 128 421 99 c 0
 349 33 291 -3 193 -6 c 0
 109 -9 19 49 17 111 c 0
 17 135 39 162 56 149 c 0
 77 134 60 111 39 125 c 0
 36 127 35 130 35 133 c 1
 31 127 27 123 27 116 c 0
 27 73 83 9 220 13 c 0
 305 15 359 71 407 128 c 0
 418 141 429 155 440 169 c 1
 403 152 367 141 343 141 c 0
 297 143 277 169 277 196 c 0
 277 233 291 269 314 305 c 1
 267 315 230 347 228 396 c 0
 226 459 299 524 355 495 c 2
 380 481 l 1
 375 475 l 1
 345 485 l 2
 296 503 241 445 247 392 c 0
 251 351 284 327 323 319 c 1
 431 467 689 587 741 579 c 0
 762 575 782 570 784 547 c 0
 789 499 558 310 365 301 c 1
 333 259 311 222 309 199 c 0
 304 163 320 157 345 157 c 0
 374 157 417 173 459 193 c 1
EndSplineSet
EndChar
StartChar: H
Encoding: 72 72 28
Width: 901
Flags: HW
Fore
699 328 m 1
 944 395 1190 499 1190 588 c 0
 1190 613 1153 609 1128 606 c 0
 1037 597 837 480 699 328 c 1
397 243 m 1
 211 195 27 113 15 32 c 0
 11 5 48 5 65 4 c 0
 177 1 304 130 397 243 c 1
559 293 m 1
 634 311 l 1
 645 323 657 337 670 350 c 1
 810 503 1051 623 1132 624 c 0
 1163 624 1207 626 1208 596 c 0
 1213 480 941 372 680 306 c 1
 656 276 l 0
 597 199 543 121 544 52 c 0
 544 21 575 5 606 2 c 0
 683 -6 874 111 870 212 c 0
 869 235 853 257 826 256 c 0
 761 255 723 198 676 140 c 0
 654 113 643 95 628 64 c 1
 621 67 l 1
 631 94 639 111 655 135 c 0
 702 207 751 272 830 272 c 0
 861 272 887 249 888 218 c 0
 889 107 713 -15 607 -12 c 0
 540 -10 510 26 514 76 c 0
 522 165 561 226 616 291 c 1
 595 286 574 281 553 277 c 1
 548 260 543 243 523 227 c 0
 513 219 505 213 493 207 c 1
 483 211 l 1
 490 217 495 221 501 227 c 0
 517 242 524 257 529 272 c 1
 522 271 515 269 508 268 c 0
 488 264 467 260 446 255 c 1
 332 115 214 -5 64 -8 c 0
 27 -9 3 5 2 30 c 0
 -2 123 215 212 412 261 c 1
 440 296 465 329 484 354 c 0
 519 399 543 425 585 465 c 0
 605 485 618 495 640 512 c 1
 629 509 621 507 609 507 c 0
 552 505 547 593 490 594 c 0
 435 595 380 542 374 478 c 0
 371 448 404 421 436 420 c 0
 473 419 499 435 520 466 c 0
 533 485 537 498 538 520 c 1
 550 514 l 1
 548 492 544 479 532 460 c 0
 509 424 481 406 438 404 c 0
 393 402 356 427 356 476 c 0
 356 553 431 612 488 612 c 0
 569 612 571 528 610 528 c 0
 645 528 666 536 696 556 c 0
 709 565 721 563 736 566 c 1
 730 554 l 1
 720 549 713 546 704 540 c 0
 615 480 579 423 512 338 c 0
 495 316 477 294 460 273 c 1
 475 276 490 279 504 282 c 0
 514 284 523 286 533 288 c 1
 537 302 542 314 554 324 c 0
 569 337 579 342 598 348 c 1
 598 338 l 1
 589 331 585 327 578 320 c 0
 569 311 563 302 559 293 c 1
EndSplineSet
EndChar
StartChar: I
Encoding: 73 73 29
Width: 541
Flags: W
Fore
783 552 m 1
 826 546 867 541 867 565 c 0
 867 574 851 574 841 574 c 0
 825 574 805 566 783 552 c 1
559 495 m 1
 485 455 426 397 423 360 c 0
 423 347 416 330 440 329 c 0
 483 328 549 403 558 476 c 0
 559 483 559 489 559 495 c 1
573 503 m 1
 573 501 573 497 573 497 c 1
 567 407 509 313 432 313 c 0
 419 313 404 319 405 347 c 0
 405 411 471 475 555 515 c 1
 546 550 519 577 481 576 c 0
 435 575 401 563 372 526 c 0
 356 505 350 491 346 465 c 1
 333 465 l 1
 335 487 340 500 350 519 c 0
 376 571 433 592 486 593 c 0
 529 593 563 561 571 522 c 1
 620 543 675 556 725 557 c 0
 735 557 745 556 756 555 c 1
 791 577 820 590 835 589 c 0
 855 587 883 589 883 569 c 0
 883 522 814 531 761 537 c 1
 675 474 559 343 483 223 c 0
 400 93 275 7 154 5 c 0
 85 3 0 27 1 97 c 0
 2 118 14 142 36 141 c 0
 79 141 65 101 36 112 c 0
 31 114 32 115 31 118 c 1
 26 117 21 117 19 113 c 0
 -5 61 72 18 154 21 c 0
 303 27 379 142 465 273 c 0
 531 375 647 481 734 540 c 1
 731 541 729 541 727 541 c 0
 679 544 623 527 573 503 c 1
EndSplineSet
EndChar
StartChar: J
Encoding: 74 74 30
Width: 387
Flags: W
Fore
49 -113 m 1
 45 -115 l 2
 -131 -173 -256 -172 -324 -257 c 0
 -350 -289 -350 -313 -315 -312 c 0
 -193 -309 -73 -231 49 -113 c 1
797 559 m 1
 820 556 843 552 872 549 c 0
 901 547 941 563 940 577 c 0
 939 592 907 589 885 587 c 0
 860 584 830 574 797 559 c 1
366 251 m 1
 381 271 397 290 412 309 c 0
 495 413 629 499 737 551 c 1
 718 553 698 553 675 553 c 0
 491 547 265 439 267 332 c 0
 267 274 311 252 366 251 c 1
84 -79 m 1
 173 11 261 119 351 232 c 1
 293 236 247 263 247 325 c 0
 244 487 483 566 675 569 c 0
 709 570 737 567 765 563 c 1
 821 589 867 603 888 603 c 0
 915 603 950 609 955 582 c 0
 962 549 906 532 868 534 c 0
 830 536 801 541 771 546 c 1
 669 492 546 391 449 280 c 0
 445 275 439 267 432 259 c 1
 472 268 511 284 540 303 c 0
 563 318 575 329 591 350 c 1
 605 336 l 1
 587 314 575 303 551 287 c 0
 514 263 463 244 414 236 c 1
 365 172 284 63 183 -42 c 1
 269 -7 351 35 378 61 c 2
 387 70 l 1
 400 61 l 1
 387 50 l 2
 330 1 247 -40 149 -77 c 1
 17 -209 -143 -327 -303 -333 c 0
 -341 -335 -368 -323 -367 -293 c 0
 -363 -182 -140 -139 27 -96 c 0
 44 -91 63 -86 84 -79 c 1
EndSplineSet
EndChar
StartChar: K
Encoding: 75 75 31
Width: 697
Flags: W
Fore
535 475 m 1
 540 463 l 1
 539 449 537 439 532 427 c 0
 511 371 441 343 404 344 c 0
 348 346 331 378 341 437 c 0
 349 485 439 563 536 561 c 0
 568 561 614 537 609 500 c 0
 607 479 623 463 645 465 c 0
 679 467 697 479 728 492 c 0
 745 499 755 504 772 512 c 1
 777 504 l 1
 761 496 750 489 735 480 c 0
 617 408 600 371 496 216 c 0
 409 87 299 -1 161 -3 c 0
 91 -3 11 27 11 97 c 0
 11 123 26 153 49 149 c 0
 82 143 77 98 40 118 c 0
 37 119 37 123 37 127 c 0
 37 128 37 127 37 130 c 1
 33 129 29 125 27 121 c 0
 23 115 25 108 25 99 c 0
 25 36 99 13 163 12 c 0
 285 9 363 103 443 201 c 0
 505 278 525 337 599 403 c 0
 623 425 639 438 667 457 c 1
 656 452 649 451 637 451 c 0
 611 451 581 458 583 494 c 0
 585 524 557 545 527 547 c 0
 448 551 365 482 355 432 c 0
 347 393 358 357 405 357 c 0
 442 357 493 381 519 427 c 0
 527 443 533 456 535 475 c 1
613 263 m 1
 605 273 593 279 580 280 c 0
 569 280 553 280 553 272 c 0
 554 261 569 261 580 261 c 0
 591 260 601 261 613 263 c 1
631 267 m 1
 661 276 692 292 721 313 c 0
 876 429 950 571 1144 575 c 0
 1248 577 1317 528 1317 461 c 0
 1318 385 1242 333 1165 335 c 0
 1148 335 1136 335 1121 343 c 0
 1108 349 1100 357 1093 371 c 1
 1107 371 l 1
 1110 364 1115 359 1121 355 c 0
 1135 345 1147 348 1164 348 c 0
 1234 348 1305 395 1299 467 c 0
 1294 523 1240 559 1144 557 c 0
 968 555 901 425 760 319 c 0
 739 303 692 270 639 256 c 1
 644 247 647 237 646 226 c 0
 645 189 559 62 558 10 c 0
 558 -1 563 -10 574 -11 c 0
 605 -15 649 23 687 59 c 2
 702 74 l 1
 715 65 l 1
 697 50 l 2
 655 16 619 -25 582 -25 c 0
 553 -25 521 -14 526 27 c 0
 535 107 614 191 620 237 c 0
 621 242 620 247 619 251 c 1
 605 249 591 248 577 249 c 0
 560 251 537 258 540 275 c 0
 543 291 567 293 578 293 c 0
 599 293 619 283 631 267 c 1
EndSplineSet
EndChar
StartChar: L
Encoding: 76 76 32
Width: 593
Flags: HW
Fore
604 273 m 1
 759 319 907 443 908 489 c 0
 908 509 887 511 871 511 c 0
 772 512 687 393 604 273 c 1
263 3 m 1
 187 31 114 67 71 65 c 0
 55 65 14 59 13 44 c 0
 11 -4 91 -9 145 -11 c 0
 186 -13 226 -7 263 3 c 1
591 253 m 1
 557 203 523 154 489 115 c 0
 442 59 390 23 333 1 c 1
 358 -5 385 -9 413 -9 c 0
 471 -9 527 11 583 59 c 2
 594 69 l 1
 605 60 l 1
 593 50 l 2
 531 2 490 -31 412 -31 c 0
 377 -31 338 -22 299 -9 c 1
 252 -23 201 -27 146 -27 c 0
 97 -26 -3 -8 -4 35 c 0
 -4 70 39 81 75 81 c 0
 150 81 215 39 293 13 c 1
 390 49 469 122 513 192 c 0
 525 210 536 227 547 244 c 1
 529 241 511 239 492 239 c 0
 404 236 301 259 303 361 c 0
 303 426 365 471 428 469 c 0
 441 469 449 467 461 464 c 0
 472 461 478 458 488 453 c 1
 485 440 l 1
 475 445 469 449 457 452 c 0
 445 455 438 458 425 457 c 0
 377 454 316 417 316 361 c 0
 316 279 407 253 497 255 c 0
 517 255 538 257 559 261 c 1
 659 410 758 524 875 524 c 0
 897 524 924 515 924 492 c 0
 925 433 769 297 591 253 c 1
EndSplineSet
EndChar
StartChar: M
Encoding: 77 77 33
Width: 1000
Flags: W
Fore
758 477 m 1
 727 458 703 447 663 437 c 0
 617 426 559 456 555 501 c 0
 551 545 511 575 468 572 c 0
 403 568 339 523 347 459 c 0
 353 404 403 367 459 369 c 0
 486 370 501 382 525 395 c 0
 531 398 534 399 540 403 c 1
 540 389 l 1
 530 381 524 377 512 371 c 0
 493 361 481 357 460 355 c 0
 397 349 338 387 328 449 c 0
 314 535 389 587 476 589 c 0
 538 591 583 550 583 509 c 0
 582 460 627 451 663 456 c 0
 720 465 750 491 799 516 c 1
 799 517 800 517 801 517 c 0
 823 537 847 557 872 577 c 0
 887 589 895 595 909 607 c 1
 917 592 l 1
 911 587 906 585 901 579 c 0
 868 534 853 503 824 455 c 0
 781 387 756 349 717 278 c 0
 708 262 702 252 693 235 c 1
 709 251 717 259 733 275 c 0
 781 321 807 349 857 394 c 1
 939 465 987 505 1079 561 c 0
 1097 571 1107 577 1124 587 c 1
 1133 579 l 1
 1117 561 l 2
 1027 459 964 411 883 301 c 0
 813 205 725 66 725 40 c 0
 726 25 734 10 749 7 c 0
 815 -4 964 157 962 191 c 0
 961 203 953 205 944 205 c 0
 877 205 851 139 802 87 c 0
 797 81 795 78 790 72 c 1
 781 78 l 1
 784 83 785 86 789 90 c 0
 837 153 875 222 947 221 c 0
 964 221 981 213 981 193 c 0
 983 138 835 -15 745 -8 c 0
 714 -5 687 18 691 53 c 0
 699 108 759 199 821 281 c 1
 883 366 931 404 1007 477 c 0
 1030 499 1044 513 1067 534 c 1
 1041 518 1027 508 1001 491 c 0
 909 427 865 381 784 303 c 0
 703 225 667 173 590 91 c 0
 555 55 536 35 501 -1 c 1
 487 11 l 1
 507 33 518 45 536 68 c 0
 581 124 601 159 640 220 c 0
 704 321 709 331 803 477 c 2
 833 523 l 1
 789 483 l 2
 703 403 680 368 580 263 c 0
 447 124 326 0 163 -3 c 0
 103 -5 1 31 1 108 c 0
 1 136 26 163 48 163 c 0
 105 163 83 109 51 115 c 0
 41 117 33 120 31 129 c 0
 31 133 33 137 35 141 c 1
 31 140 28 140 25 137 c 0
 15 125 16 120 16 103 c 0
 17 63 77 11 165 12 c 0
 295 13 440 144 571 281 c 0
 631 345 689 410 758 477 c 1
EndSplineSet
EndChar
StartChar: N
Encoding: 78 78 34
Width: 776
Flags: W
Fore
743 491 m 2
 744 491 l 2
 745 491 745 492 745 492 c 2
 752 500 759 507 767 515 c 0
 779 527 787 533 801 545 c 1
 815 540 l 1
 797 518 785 507 775 481 c 0
 744 403 743 358 717 278 c 0
 703 237 699 214 688 173 c 1
 704 198 726 229 753 264 c 0
 949 509 1142 655 1387 655 c 0
 1536 654 1719 590 1707 444 c 0
 1699 352 1633 274 1541 276 c 0
 1511 277 1490 278 1467 296 c 0
 1458 303 1453 308 1447 317 c 1
 1453 323 l 1
 1459 316 1464 312 1472 307 c 0
 1495 291 1513 289 1541 289 c 0
 1626 289 1687 359 1693 444 c 0
 1703 582 1526 640 1387 640 c 0
 1047 640 852 350 639 79 c 0
 615 48 598 31 573 0 c 1
 553 9 l 1
 566 24 573 33 585 49 c 0
 653 145 662 219 680 289 c 0
 688 320 672 273 711 395 c 0
 719 417 723 432 731 455 c 1
 703 419 682 399 657 365 c 0
 565 241 396 -3 198 -8 c 0
 109 -11 -11 24 1 108 c 0
 5 136 20 165 48 163 c 0
 79 161 94 130 63 117 c 0
 41 107 35 127 35 141 c 1
 30 139 28 137 24 133 c 0
 19 129 17 125 16 119 c 0
 -5 28 120 1 205 7 c 0
 359 17 459 148 571 281 c 0
 623 344 656 391 699 441 c 1
 676 425 654 414 621 412 c 0
 574 409 517 428 513 473 c 0
 509 517 469 547 426 544 c 0
 361 540 297 495 305 431 c 0
 311 376 361 339 417 341 c 0
 444 342 459 354 483 367 c 0
 489 370 492 371 498 375 c 1
 498 361 l 1
 488 353 482 349 470 343 c 0
 451 333 439 329 418 327 c 0
 355 321 296 359 286 421 c 0
 272 507 347 559 434 561 c 0
 496 563 541 522 541 481 c 0
 540 432 585 427 621 428 c 0
 677 429 704 459 743 491 c 2
EndSplineSet
EndChar
StartChar: O
Encoding: 79 79 35
Width: 499
Flags: W
Fore
413 527 m 1
 410 515 l 1
 391 509 379 507 362 499 c 0
 322 478 51 261 53 76 c 0
 53 15 115 13 159 13 c 0
 247 15 608 305 622 464 c 0
 625 494 614 521 586 532 c 0
 516 561 383 469 315 373 c 0
 297 347 288 329 274 300 c 0
 265 282 261 272 254 253 c 1
 246 261 l 1
 252 278 256 287 263 304 c 0
 281 342 292 362 315 396 c 0
 390 505 517 577 598 545 c 0
 632 532 641 498 642 461 c 0
 648 287 265 -3 153 -5 c 0
 87 -7 25 16 28 109 c 0
 35 305 261 481 365 515 c 0
 383 521 394 523 413 527 c 1
EndSplineSet
EndChar
StartChar: P
Encoding: 80 80 36
Width: 597
Flags: W
Fore
759 507 m 1
 729 543 676 563 627 564 c 0
 455 565 277 397 277 297 c 0
 277 260 294 226 341 225 c 0
 391 225 475 293 511 375 c 0
 521 398 523 407 521 428 c 0
 521 437 520 442 517 451 c 1
 528 452 l 1
 531 443 534 437 535 428 c 0
 536 395 528 377 515 347 c 0
 479 268 405 213 337 211 c 0
 286 209 263 254 264 299 c 0
 267 418 442 570 617 577 c 0
 679 580 738 557 775 515 c 1
 784 519 793 523 803 527 c 0
 816 532 825 532 839 535 c 1
 836 524 l 1
 827 521 821 520 812 516 c 0
 803 511 794 507 785 502 c 1
 799 483 808 460 812 435 c 0
 827 335 728 247 645 239 c 0
 617 236 593 242 591 267 c 0
 588 297 617 328 652 343 c 0
 659 345 662 347 669 348 c 1
 668 340 l 1
 659 337 654 333 647 328 c 0
 626 313 607 291 609 275 c 0
 611 257 622 251 641 252 c 0
 701 253 771 346 783 428 c 0
 786 452 781 474 769 493 c 1
 666 431 616 348 544 235 c 0
 457 97 329 -16 191 -16 c 0
 110 -16 23 27 24 105 c 0
 24 131 37 157 63 160 c 0
 84 162 95 154 97 139 c 0
 99 117 61 113 61 135 c 0
 61 138 64 140 67 143 c 1
 61 143 57 143 52 140 c 0
 41 134 38 118 39 103 c 0
 42 31 125 -4 200 -4 c 0
 323 -4 424 121 503 236 c 0
 585 357 643 449 759 507 c 1
EndSplineSet
EndChar
StartChar: Q
Encoding: 81 81 37
Width: 775
Flags: W
Fore
254 23 m 1
 207 41 161 58 104 61 c 0
 72 63 32 58 28 31 c 0
 23 -7 90 -1 132 1 c 0
 177 4 216 11 254 23 c 1
278 13 m 1
 237 1 193 -8 143 -12 c 0
 89 -17 5 -25 12 33 c 0
 17 70 75 80 121 79 c 0
 179 77 230 55 283 33 c 1
 327 49 371 71 420 97 c 0
 577 182 731 313 728 431 c 0
 726 505 658 532 592 529 c 0
 462 525 314 429 307 311 c 0
 304 265 344 224 389 228 c 0
 437 232 565 305 561 383 c 0
 561 404 552 425 525 425 c 0
 475 427 441 387 420 349 c 0
 416 342 415 338 412 331 c 1
 404 333 l 1
 405 341 405 346 408 353 c 0
 425 391 476 443 527 440 c 0
 554 439 573 417 576 391 c 0
 585 299 449 211 387 212 c 0
 333 213 287 250 289 309 c 0
 296 441 457 547 601 548 c 0
 679 549 757 507 757 428 c 0
 757 261 585 184 467 107 c 0
 410 69 359 42 307 23 c 1
 356 3 407 -14 467 -13 c 0
 577 -12 715 74 723 109 c 0
 727 130 717 145 691 145 c 0
 624 145 571 87 513 28 c 0
 506 21 502 16 495 8 c 1
 491 20 l 1
 500 34 506 42 517 55 c 0
 568 113 616 157 683 161 c 0
 729 164 739 143 740 113 c 0
 741 73 588 -38 467 -35 c 0
 393 -33 335 -10 278 13 c 1
EndSplineSet
EndChar
StartChar: R
Encoding: 82 82 38
Width: 690
Flags: W
Fore
471 517 m 1
 339 461 243 349 245 279 c 0
 246 247 255 214 303 217 c 0
 384 224 498 332 501 444 c 0
 502 473 490 498 471 517 c 1
584 243 m 1
 581 252 575 258 565 257 c 0
 561 256 556 258 555 253 c 0
 553 244 567 243 576 243 c 0
 579 243 581 243 584 243 c 1
747 497 m 1
 638 431 599 343 516 237 c 0
 408 99 305 -13 141 -16 c 0
 74 -17 -7 8 -5 75 c 0
 -5 101 5 130 31 131 c 0
 49 131 71 123 67 99 c 0
 63 71 29 71 24 92 c 0
 22 103 25 101 27 105 c 1
 21 105 15 101 13 95 c 1
 9 89 11 83 11 76 c 0
 11 16 84 -4 144 -2 c 0
 286 3 359 106 456 217 c 0
 556 331 603 437 721 500 c 0
 727 503 733 506 738 509 c 1
 709 538 662 552 616 551 c 0
 571 549 528 539 487 524 c 1
 507 502 519 473 519 441 c 0
 517 336 424 200 295 200 c 0
 252 200 231 233 231 275 c 0
 231 364 328 473 457 529 c 1
 432 547 399 557 367 556 c 0
 279 555 215 505 148 436 c 0
 139 426 133 420 124 409 c 1
 115 413 l 1
 122 424 127 430 136 440 c 0
 210 525 289 579 396 568 c 0
 427 565 454 554 475 536 c 1
 521 553 570 563 620 564 c 0
 679 565 723 546 752 515 c 1
 763 521 775 525 790 531 c 1
 796 522 l 1
 789 519 783 516 777 513 c 0
 771 510 766 507 761 505 c 1
 779 479 789 447 791 412 c 0
 793 356 713 249 607 233 c 1
 611 219 613 205 612 192 c 0
 609 127 533 85 533 17 c 0
 533 0 543 -10 558 -10 c 0
 606 -11 639 21 677 57 c 0
 682 61 686 65 690 70 c 1
 701 59 l 1
 690 50 l 2
 647 15 619 -24 565 -25 c 0
 536 -25 508 -14 507 22 c 0
 502 108 583 158 587 205 c 0
 588 213 587 222 587 231 c 1
 582 231 578 231 573 231 c 0
 556 231 529 238 538 259 c 0
 541 268 553 271 564 272 c 0
 583 275 595 263 603 245 c 1
 688 266 771 379 764 452 c 0
 763 469 757 484 747 497 c 1
EndSplineSet
EndChar
StartChar: S
Encoding: 83 83 39
Width: 639
Flags: W
Fore
626 295 m 1
 737 331 884 433 881 509 c 0
 880 525 869 526 865 526 c 0
 777 526 699 415 626 295 c 1
613 275 m 1
 589 237 567 198 544 163 c 0
 483 68 353 -27 212 -25 c 0
 111 -24 13 38 23 153 c 0
 33 267 130 358 231 358 c 0
 299 358 363 334 364 247 c 0
 365 149 287 85 199 80 c 0
 154 77 135 115 134 139 c 0
 131 189 171 213 201 227 c 0
 215 233 225 236 240 237 c 1
 231 221 l 1
 217 218 210 215 199 208 c 0
 173 192 154 175 154 145 c 0
 154 127 163 96 201 96 c 0
 265 96 349 155 347 254 c 0
 345 327 285 343 227 341 c 0
 138 336 48 253 41 149 c 0
 35 51 121 -8 212 -9 c 0
 325 -11 438 77 516 197 c 0
 531 220 546 244 562 268 c 1
 483 265 393 297 391 376 c 0
 388 456 489 491 512 464 c 0
 516 459 519 456 521 451 c 1
 512 445 l 1
 509 450 507 453 501 456 c 0
 477 471 407 443 409 379 c 0
 413 305 498 276 572 283 c 1
 657 413 757 544 856 544 c 0
 876 544 896 532 895 505 c 0
 889 415 730 302 613 275 c 1
239 442 m 1
 239 429 l 1
 232 429 l 1
 232 443 l 1
 214 446 196 449 173 448 c 0
 153 447 135 439 135 420 c 0
 135 407 148 400 161 400 c 0
 173 400 189 399 191 411 c 0
 192 414 190 417 188 420 c 1
 195 427 l 1
 198 424 199 422 201 419 c 0
 211 400 180 383 159 383 c 0
 138 383 118 397 117 417 c 0
 117 447 142 468 171 469 c 0
 193 471 212 466 232 462 c 1
 232 476 l 1
 239 476 l 1
 239 461 l 1
 253 458 268 456 285 457 c 0
 318 459 337 475 335 511 c 0
 334 520 328 523 321 523 c 0
 316 523 313 520 311 515 c 1
 305 523 l 1
 307 527 310 530 315 533 c 0
 329 541 349 530 350 512 c 0
 353 467 330 440 290 439 c 0
 270 438 254 440 239 442 c 1
EndSplineSet
EndChar
StartChar: T
Encoding: 84 84 40
Width: 569
Flags: W
Fore
721 462 m 1
 769 469 819 511 820 529 c 0
 820 534 816 537 811 537 c 0
 789 537 757 507 721 462 c 1
708 447 m 1
 653 377 589 280 531 203 c 0
 429 69 297 -41 133 -19 c 0
 64 -9 -5 26 -5 96 c 0
 -5 122 5 150 30 151 c 0
 51 153 69 146 69 129 c 0
 69 113 45 103 33 117 c 0
 29 122 29 128 31 134 c 1
 28 135 25 135 22 133 c 0
 10 125 9 111 11 96 c 0
 17 27 86 2 155 -4 c 0
 317 -18 429 135 507 240 c 0
 559 311 621 390 679 451 c 1
 635 459 597 473 593 529 c 0
 590 563 548 577 516 573 c 0
 420 561 292 493 291 377 c 0
 290 323 320 305 359 305 c 0
 427 307 509 387 512 449 c 0
 513 461 511 468 509 480 c 1
 520 477 l 1
 523 467 525 459 525 448 c 0
 525 370 440 294 357 291 c 0
 309 289 273 311 273 381 c 0
 275 509 433 594 527 592 c 0
 571 591 627 573 629 525 c 0
 631 488 655 479 683 467 c 1
 685 465 688 465 691 463 c 1
 744 517 793 554 828 555 c 0
 837 555 843 545 842 535 c 0
 839 500 771 445 708 447 c 1
EndSplineSet
EndChar
StartChar: U
Encoding: 85 85 41
Width: 579
Flags: HW
Fore
587 345 m 1
 679 426 805 530 806 543 c 0
 806 548 811 555 803 555 c 0
 753 552 667 443 596 356 c 0
 593 352 590 349 587 345 c 1
452 220 m 1
 485 265 525 311 564 357 c 0
 645 453 736 575 805 569 c 0
 817 569 831 561 827 551 c 0
 806 487 681 407 583 323 c 0
 573 314 557 299 538 280 c 1
 463 177 400 67 401 16 c 0
 401 0 411 -10 435 -9 c 0
 459 -9 525 20 569 60 c 2
 585 75 l 1
 599 66 l 1
 579 50 l 2
 527 7 469 -27 427 -27 c 0
 379 -26 371 -3 371 27 c 0
 369 68 384 111 409 154 c 1
 314 64 209 -27 161 -27 c 0
 135 -27 110 -13 107 12 c 0
 90 149 443 425 442 514 c 0
 442 547 409 566 376 568 c 0
 208 579 19 421 19 301 c 0
 19 265 40 235 77 237 c 0
 157 239 233 319 270 413 c 0
 274 424 277 431 280 443 c 1
 285 427 l 1
 284 415 281 407 278 396 c 0
 245 303 169 220 88 219 c 0
 37 219 -6 237 -6 295 c 0
 -6 487 240 591 371 589 c 0
 409 589 466 560 463 511 c 0
 453 351 140 120 145 15 c 0
 145 2 152 -8 169 -8 c 0
 215 -7 334 108 452 220 c 1
EndSplineSet
EndChar
StartChar: V
Encoding: 86 86 42
Width: 392
Flags: W
Fore
473 365 m 0
 654 553 816 637 1076 651 c 0
 1241 660 1416 637 1449 481 c 0
 1453 465 1454 455 1455 438 c 1
 1447 438 l 1
 1445 455 1443 465 1439 481 c 0
 1397 629 1224 643 1076 635 c 0
 803 622 655 526 468 333 c 0
 331 192 246 114 81 5 c 0
 67 -4 59 -9 44 -19 c 1
 15 5 l 1
 36 31 47 47 68 72 c 0
 179 205 212 305 324 440 c 0
 335 453 338 461 348 475 c 1
 341 468 335 464 327 461 c 0
 318 459 312 459 303 459 c 0
 213 458 263 570 168 568 c 0
 98 567 39 522 28 456 c 0
 19 403 44 378 83 373 c 0
 127 368 157 383 180 423 c 0
 191 441 199 451 204 472 c 1
 204 459 203 450 199 437 c 0
 184 389 147 357 97 357 c 0
 52 357 10 371 12 437 c 0
 15 520 84 584 167 584 c 0
 267 584 246 481 292 477 c 0
 340 473 373 509 401 541 c 0
 410 551 414 557 421 568 c 1
 433 560 l 1
 425 550 421 544 412 533 c 0
 319 414 293 327 207 203 c 0
 159 135 132 97 81 32 c 1
 125 64 151 83 193 117 c 0
 308 209 375 263 473 365 c 0
EndSplineSet
EndChar
StartChar: W
Encoding: 87 87 43
Width: 557
Flags: W
Fore
468 135 m 0
 575 231 625 296 732 389 c 0
 932 563 1088 643 1351 657 c 0
 1515 665 1691 643 1724 486 c 0
 1727 470 1729 460 1729 443 c 1
 1721 443 l 1
 1720 460 1718 470 1713 486 c 0
 1672 634 1499 648 1351 641 c 0
 1077 627 946 554 743 375 c 0
 593 243 529 158 368 25 c 0
 344 5 327 -2 301 -19 c 1
 291 -11 l 1
 301 1 308 9 317 21 c 0
 340 51 351 70 368 104 c 0
 413 192 449 239 493 331 c 0
 506 356 511 371 520 397 c 1
 501 377 489 365 469 344 c 0
 351 217 275 146 147 27 c 0
 133 14 125 7 112 -5 c 1
 100 5 l 1
 121 31 132 47 153 72 c 0
 265 205 297 305 409 440 c 0
 420 453 423 461 433 475 c 1
 427 468 421 464 412 461 c 0
 403 459 397 459 388 459 c 0
 299 458 348 570 253 568 c 0
 183 567 124 522 113 456 c 0
 105 403 129 378 168 373 c 0
 213 368 242 383 265 423 c 0
 276 441 285 451 289 472 c 1
 289 459 288 450 284 437 c 0
 269 389 232 357 183 357 c 0
 137 357 95 371 97 437 c 0
 100 520 169 584 252 584 c 0
 353 584 331 481 377 477 c 0
 425 473 458 509 487 541 c 0
 495 551 499 557 507 568 c 1
 519 560 l 1
 511 550 506 544 497 533 c 0
 404 414 374 329 292 203 c 0
 283 189 280 180 272 165 c 1
 319 213 289 182 336 229 c 0
 539 433 511 396 611 509 c 0
 623 523 629 530 640 544 c 1
 651 533 l 1
 639 521 629 513 619 499 c 0
 545 393 493 224 405 104 c 0
 392 85 387 73 376 53 c 1
 412 85 433 103 468 135 c 0
EndSplineSet
EndChar
StartChar: X
Encoding: 88 88 44
Width: 936
Flags: HW
Fore
689 434 m 1
 788 528 905 595 995 595 c 0
 1048 595 1103 565 1099 507 c 0
 1092 414 980 307 904 301 c 0
 840 297 823 322 821 357 c 0
 817 425 869 474 934 487 c 0
 951 491 960 489 976 485 c 1
 984 475 l 1
 959 475 944 471 921 461 c 0
 878 441 844 415 843 368 c 0
 842 342 852 317 891 317 c 0
 967 317 1069 417 1083 512 c 0
 1088 549 1037 579 995 576 c 0
 783 562 538 237 515 93 c 0
 503 25 551 10 596 11 c 0
 681 11 823 105 825 191 c 0
 826 209 825 225 803 224 c 0
 727 219 699 183 660 128 c 0
 652 117 650 109 645 96 c 1
 632 96 l 1
 635 113 637 122 645 136 c 0
 682 197 723 237 800 240 c 0
 833 241 840 214 840 189 c 0
 840 115 695 -14 592 -8 c 0
 535 -5 481 3 488 93 c 0
 491 123 498 154 511 185 c 1
 411 85 287 1 168 3 c 0
 114 3 67 9 40 56 c 0
 29 75 24 88 24 109 c 0
 24 126 27 137 35 152 c 1
 43 152 l 1
 39 136 38 126 40 109 c 0
 42 91 46 80 56 64 c 0
 86 15 138 23 195 21 c 0
 346 17 695 410 687 519 c 0
 683 565 640 583 597 581 c 0
 457 577 281 425 280 316 c 0
 280 279 311 267 341 267 c 0
 423 265 508 376 529 448 c 0
 535 469 537 482 537 504 c 1
 555 504 l 1
 555 482 553 469 548 448 c 0
 523 338 415 242 343 244 c 0
 285 245 253 274 257 325 c 0
 268 446 459 600 597 603 c 0
 653 604 701 573 708 512 c 0
 710 494 703 467 689 434 c 1
EndSplineSet
EndChar
StartChar: Y
Encoding: 89 89 45
Width: 537
Flags: HW
Fore
645 411 m 1
 709 463 782 521 784 534 c 0
 785 543 779 546 773 546 c 0
 751 547 701 487 645 411 c 1
551 329 m 1
 626 436 723 565 782 563 c 0
 793 563 805 563 806 548 c 0
 807 507 701 439 629 376 c 0
 621 368 611 360 603 352 c 1
 571 307 539 261 510 220 c 0
 417 89 285 -10 165 -10 c 0
 88 -10 3 22 -1 99 c 0
 -2 125 21 149 43 147 c 0
 56 146 65 137 64 123 c 0
 63 103 29 99 27 115 c 0
 26 119 27 121 27 124 c 1
 24 123 22 123 19 121 c 0
 11 115 11 107 11 98 c 0
 11 47 92 5 166 5 c 0
 305 7 391 118 463 205 c 0
 472 216 484 232 498 252 c 1
 443 201 392 162 347 162 c 0
 321 162 301 174 303 201 c 0
 311 302 521 458 514 510 c 0
 511 533 505 559 479 560 c 0
 363 565 174 420 174 320 c 0
 174 295 186 275 217 274 c 0
 300 273 361 372 398 433 c 0
 402 440 403 445 405 453 c 1
 411 446 l 1
 411 438 411 432 408 425 c 0
 371 337 289 253 217 256 c 0
 180 257 157 283 157 315 c 0
 158 427 351 587 487 577 c 0
 515 575 541 545 543 512 c 0
 551 423 341 273 335 201 c 0
 333 189 331 176 344 176 c 0
 403 176 474 255 551 329 c 1
EndSplineSet
EndChar
StartChar: Z
Encoding: 90 90 46
Width: 667
Flags: W
Fore
519 501 m 1
 563 499 619 540 615 559 c 0
 614 565 606 565 599 565 c 0
 581 566 551 539 519 501 c 1
250 170 m 1
 163 161 72 67 67 35 c 0
 65 19 77 17 87 17 c 0
 115 17 183 90 250 170 c 1
503 483 m 1
 475 447 445 407 418 372 c 0
 374 313 325 245 276 184 c 1
 336 181 355 123 390 71 c 0
 407 45 426 27 457 27 c 0
 557 25 637 156 646 213 c 0
 649 231 635 248 618 248 c 0
 559 247 526 189 482 140 c 0
 467 123 463 109 455 88 c 1
 447 95 l 1
 452 113 454 124 463 140 c 0
 503 207 561 262 611 267 c 0
 637 269 661 249 661 223 c 0
 661 147 569 14 454 9 c 0
 405 7 381 34 355 67 c 0
 323 109 306 167 265 171 c 1
 191 76 120 0 79 3 c 0
 62 4 51 11 50 35 c 0
 49 79 149 178 261 184 c 1
 285 212 307 241 327 267 c 0
 381 335 437 421 487 486 c 1
 463 493 445 505 430 525 c 0
 413 548 403 569 374 573 c 0
 333 579 298 540 298 499 c 0
 298 472 323 452 351 449 c 0
 373 447 389 453 403 469 c 0
 408 475 411 479 414 485 c 1
 422 475 l 1
 417 463 411 456 401 448 c 0
 389 439 380 436 366 435 c 0
 326 430 285 458 283 497 c 0
 281 543 316 585 363 589 c 0
 405 593 429 567 454 533 c 0
 465 518 481 508 501 503 c 1
 541 551 579 584 609 581 c 0
 619 581 627 575 629 565 c 0
 635 527 562 476 503 483 c 1
EndSplineSet
EndChar
StartChar: underscore
Encoding: 95 95 47
Width: 316
Flags: W
Fore
61 77 m 0
 43 75 33 72 17 63 c 0
 5 57 -2 51 -12 42 c 1
 -12 62 l 1
 -4 70 1 74 11 80 c 0
 29 91 42 97 63 97 c 0
 147 100 146 -17 215 -3 c 0
 250 5 265 23 292 46 c 0
 302 55 307 60 316 70 c 2
 332 88 l 1
 332 68 l 1
 316 50 l 2
 309 42 305 37 298 31 c 0
 268 3 245 -17 203 -19 c 0
 129 -22 127 87 61 77 c 0
EndSplineSet
EndChar
StartChar: quoteleft
Encoding: 96 8216 94
Width: 123
Flags: HW
Fore
317 440 m 0
 310 493 355 558 407 545 c 0
 416 542 421 540 429 535 c 1
 424 533 421 527 415 529 c 0
 399 533 358 531 347 475 c 0
 345 468 349 467 351 463 c 1
 355 468 358 470 364 471 c 0
 389 478 399 440 381 420 c 0
 359 395 321 412 317 440 c 0
EndSplineSet
EndChar
StartChar: a
Encoding: 97 97 48
Width: 316
Flags: W
Fore
60 1 m 0
 85 -9 213 89 237 120 c 2
 311 212 l 1
 321 226 344 257 326 257 c 0
 246 257 7 24 60 1 c 0
-10 59 m 1
 0 70 l 2
 3 73 7 77 11 80 c 0
 127 189 271 300 346 269 c 1
 351 268 353 264 357 261 c 1
 375 281 l 1
 393 268 l 1
 243 80 l 2
 222 54 169 -11 211 -11 c 0
 233 -11 264 21 292 46 c 0
 301 54 308 61 316 70 c 1
 335 68 l 1
 316 50 l 1
 311 43 305 37 298 31 c 0
 266 0 241 -27 199 -27 c 0
 161 -27 162 16 175 33 c 1
 185 44 l 1
 159 24 l 2
 123 -3 92 -20 55 -20 c 0
 -7 -20 23 49 50 81 c 0
 60 94 71 109 77 115 c 2
 90 129 l 1
 42 87 l 2
 32 78 27 71 17 63 c 0
 11 59 6 54 0 50 c 1
 -10 59 l 1
EndSplineSet
Substitution: 0 65534 'high' a.high
EndChar
StartChar: b
Encoding: 98 98 49
Width: 456
Flags: W
Fore
297 341 m 1
 440 470 l 2
 473 500 516 535 515 554 c 0
 515 563 516 566 501 568 c 0
 473 572 408 476 369 428 c 0
 347 400 323 371 297 341 c 1
133 191 m 1
 183 255 243 324 299 386 c 0
 365 457 453 591 499 588 c 0
 521 587 533 583 532 554 c 0
 530 516 483 483 443 447 c 2
 219 247 l 1
 132 141 57 47 55 20 c 0
 54 7 64 5 73 4 c 0
 118 -1 304 154 311 248 c 0
 312 256 311 261 311 269 c 1
 335 269 l 1
 336 255 339 247 347 237 c 0
 365 211 387 213 415 213 c 0
 431 213 445 217 456 221 c 1
 471 216 l 1
 456 201 l 1
 444 197 415 191 389 192 c 0
 364 193 349 200 327 215 c 1
 322 204 320 198 313 188 c 0
 245 82 117 -26 63 -27 c 0
 45 -27 24 -12 29 16 c 0
 34 43 56 82 87 128 c 1
 0 50 l 1
 0 70 l 1
 133 191 l 1
EndSplineSet
Substitution: 0 65534 'high' b.high
EndChar
StartChar: c
Encoding: 99 99 50
Width: 275
Flags: W
Fore
275 50 m 2
 271 45 267 41 262 35 c 1
 222 -3 147 -35 83 -28 c 0
 22 -22 12 24 26 59 c 2
 33 76 l 1
 0 50 l 1
 -11 60 l 1
 0 70 l 2
 8 77 13 82 21 90 c 0
 37 105 47 113 61 130 c 0
 122 210 231 288 277 288 c 0
 305 288 327 271 327 246 c 0
 328 221 316 198 285 200 c 0
 251 202 249 243 289 245 c 0
 297 246 303 241 307 234 c 1
 310 241 310 247 307 254 c 0
 302 263 295 268 285 268 c 0
 212 267 67 104 53 42 c 0
 45 7 64 -1 98 -5 c 0
 151 -11 227 20 258 54 c 0
 264 61 269 63 275 70 c 1
 288 65 l 1
 275 50 l 2
EndSplineSet
Substitution: 0 65534 'high' c.high
EndChar
StartChar: d
Encoding: 100 100 51
Width: 316
Flags: W
Fore
67 -5 m 0
 91 -16 213 89 237 120 c 2
 311 212 l 1
 321 226 344 257 326 257 c 0
 246 257 14 17 67 -5 c 0
-10 59 m 1
 0 70 l 2
 3 73 7 77 11 80 c 0
 127 189 271 300 346 269 c 1
 351 268 353 264 357 261 c 1
 655 620 l 1
 689 620 l 1
 243 80 l 2
 221 54 168 -11 210 -11 c 0
 233 -11 264 21 292 46 c 0
 301 54 308 61 316 70 c 1
 335 68 l 1
 316 50 l 1
 311 43 305 37 298 31 c 0
 266 0 241 -27 198 -27 c 0
 160 -27 169 13 179 33 c 2
 185 44 l 1
 159 24 l 2
 123 -3 99 -27 61 -27 c 0
 -1 -27 23 49 50 81 c 0
 59 93 64 101 73 111 c 2
 90 129 l 1
 42 87 l 2
 32 78 27 71 17 63 c 0
 11 59 6 54 0 50 c 1
 -10 59 l 1
EndSplineSet
Substitution: 0 65534 'high' d.high
EndChar
StartChar: e
Encoding: 101 101 52
Width: 275
Flags: W
Fore
151 176 m 1
 157 177 163 177 169 178 c 0
 238 187 319 243 321 271 c 0
 321 278 310 277 303 276 c 0
 271 272 201 226 151 176 c 1
136 159 m 1
 129 153 124 145 119 138 c 0
 94 103 75 64 73 38 c 0
 69 -48 234 17 275 69 c 1
 281 75 l 1
 289 65 l 1
 276 50 l 2
 230 -5 165 -30 83 -28 c 0
 34 -27 17 36 54 92 c 2
 63 106 l 1
 40 85 l 2
 31 77 27 72 18 64 c 0
 11 59 7 55 0 50 c 2
 -16 37 l 1
 -15 54 l 1
 -9 60 -6 65 0 70 c 0
 44 110 107 179 171 233 c 0
 221 275 247 289 316 296 c 0
 337 298 342 275 339 261 c 0
 333 231 269 184 199 166 c 0
 175 160 159 158 136 159 c 1
EndSplineSet
Substitution: 0 65534 'high' e.high
EndChar
StartChar: f
Encoding: 102 102 53
Width: 197
Flags: W
Fore
-44 -117 m 1
 -149 -175 -241 -225 -245 -279 c 0
 -246 -293 -245 -312 -223 -312 c 0
 -179 -312 -116 -231 -44 -117 c 1
549 624 m 0
 547 639 536 645 523 644 c 0
 475 641 369 484 276 340 c 1
 449 495 553 574 549 624 c 0
231 269 m 1
 296 260 l 1
 292 232 l 1
 215 243 l 1
 157 150 94 43 33 -53 c 1
 76 -28 117 -1 153 30 c 0
 170 45 182 53 198 70 c 2
 210 83 l 1
 209 61 l 1
 197 50 l 2
 186 40 177 28 161 15 c 0
 117 -22 65 -55 13 -85 c 1
 -79 -226 -165 -337 -226 -333 c 0
 -264 -331 -272 -312 -271 -283 c 0
 -270 -209 -150 -154 -24 -85 c 1
 25 -6 79 85 133 174 c 1
 93 132 57 96 0 50 c 2
 -10 42 l 1
 -11 59 l 1
 0 70 l 2
 69 143 110 185 178 249 c 1
 123 257 l 1
 125 283 l 1
 195 274 l 1
 212 301 229 326 246 351 c 0
 341 488 443 663 523 665 c 0
 554 665 567 653 567 620 c 0
 565 549 381 411 235 276 c 1
 234 273 233 271 231 269 c 1
EndSplineSet
Substitution: 0 65534 'high' f.high
EndChar
StartChar: g
Encoding: 103 103 54
Width: 307
Flags: W
Fore
63 0 m 0
 88 -11 213 89 237 120 c 2
 311 212 l 2
 323 227 344 257 326 257 c 0
 246 257 11 23 63 0 c 0
75 -111 m 1
 68 -115 61 -119 53 -123 c 0
 -38 -170 -162 -210 -155 -285 c 0
 -153 -297 -145 -305 -131 -307 c 0
 -75 -313 -6 -225 75 -111 c 1
151 -47 m 1
 170 -36 190 -24 213 -9 c 0
 252 18 273 37 307 70 c 1
 318 71 l 1
 317 59 l 1
 307 50 l 2
 267 13 243 -9 197 -39 c 0
 170 -57 147 -71 124 -85 c 1
 31 -215 -57 -333 -131 -331 c 0
 -149 -331 -179 -320 -179 -285 c 0
 -181 -184 -46 -151 59 -94 c 0
 75 -86 89 -79 103 -72 c 1
 125 -41 147 -8 171 25 c 2
 185 44 l 1
 159 24 l 2
 123 -3 95 -21 58 -21 c 0
 -4 -21 23 49 50 81 c 0
 62 95 67 103 79 117 c 2
 91 130 l 1
 42 87 l 2
 32 78 27 72 17 63 c 0
 11 58 7 55 0 50 c 1
 -10 59 l 1
 0 70 l 2
 4 74 7 76 11 80 c 0
 127 189 271 300 346 269 c 0
 351 267 353 265 357 261 c 1
 375 281 l 1
 393 268 l 1
 244 80 l 2
 213 41 181 -3 151 -47 c 1
EndSplineSet
Substitution: 0 65534 'high' g.high
EndChar
StartChar: h
Encoding: 104 104 55
Width: 357
Flags: W
Fore
363 387 m 1
 469 478 548 549 551 571 c 0
 553 581 551 594 541 595 c 0
 510 598 437 489 363 387 c 1
261 299 m 1
 271 312 281 325 291 339 c 0
 379 453 475 622 539 616 c 0
 570 613 577 591 571 571 c 0
 557 514 429 406 293 295 c 1
 275 272 263 257 243 232 c 1
 263 247 280 258 298 270 c 0
 323 287 342 291 373 293 c 0
 407 296 426 277 411 232 c 0
 401 199 228 56 227 20 c 0
 227 9 232 1 246 0 c 0
 270 -3 323 31 358 69 c 2
 367 79 l 1
 367 60 l 1
 357 50 l 2
 318 11 289 -29 238 -27 c 0
 204 -25 195 6 201 32 c 0
 219 111 372 209 385 259 c 0
 387 267 386 273 366 272 c 0
 275 267 164 107 57 -7 c 0
 50 -14 43 -19 37 -27 c 1
 21 3 l 1
 49 40 70 70 102 112 c 0
 126 143 147 169 168 193 c 1
 118 151 71 112 34 77 c 1
 22 67 13 60 0 50 c 1
 -11 47 l 1
 -13 56 l 1
 -8 61 -4 65 1 70 c 0
 78 143 172 224 261 299 c 1
EndSplineSet
Substitution: 0 65534 'high' h.high
EndChar
StartChar: i
Encoding: 105 105 56
Width: 152
Flags: HW
Fore
61 -27 m 0
 42 -27 25 -13 25 9 c 0
 25 38 41 67 51 80 c 2
 78 116 l 1
 64 103 55 95 40 83 c 0
 25 71 15 62 0 50 c 1
 -17 56 l 1
 0 70 l 2
 17 86 28 97 45 113 c 0
 100 166 125 201 183 257 c 0
 193 266 198 275 206 287 c 1
 226 271 l 1
 95 95 l 2
 81 77 59 37 58 17 c 0
 57 -3 65 -5 74 -4 c 0
 83 -4 111 25 131 47 c 2
 152 70 l 1
 162 59 l 1
 152 50 l 1
 135 32 l 2
 111 5 86 -25 61 -27 c 0
289 343 m 0
 289 318 252 318 252 343 c 0
 252 367 289 367 289 343 c 0
EndSplineSet
Substitution: 0 65534 'high' i.high
EndChar
StartChar: j
Encoding: 106 106 57
Width: 152
Flags: HW
Fore
289 343 m 0
 289 318 252 318 252 343 c 0
 252 367 289 367 289 343 c 0
-75 -123 m 1
 -169 -184 -252 -233 -258 -273 c 0
 -261 -291 -259 -315 -239 -315 c 0
 -195 -313 -139 -218 -91 -149 c 0
 -85 -140 -80 -131 -75 -123 c 1
-27 -93 m 1
 -35 -105 -43 -119 -52 -133 c 0
 -110 -223 -175 -335 -240 -335 c 0
 -271 -335 -285 -308 -283 -281 c 0
 -279 -219 -165 -155 -48 -81 c 1
 -27 -47 -9 -16 18 27 c 0
 42 64 56 85 81 123 c 1
 65 107 55 97 39 83 c 0
 24 69 15 62 0 50 c 1
 -17 56 l 1
 0 70 l 1
 35 103 53 121 87 155 c 0
 125 194 147 215 181 257 c 0
 191 269 197 275 206 287 c 1
 226 271 l 1
 214 257 207 248 195 233 c 0
 157 186 137 157 102 108 c 0
 58 46 31 1 -2 -52 c 1
 47 -21 93 12 129 47 c 2
 152 70 l 1
 163 71 l 1
 162 59 l 1
 152 50 l 1
 135 33 l 2
 89 -13 31 -55 -27 -93 c 1
EndSplineSet
Substitution: 0 65534 'high' j.high
EndChar
StartChar: k
Encoding: 107 107 58
Width: 321
Flags: HW
Fore
315 345 m 1
 441 456 561 564 561 579 c 0
 561 587 561 597 553 597 c 0
 503 600 461 540 419 485 c 0
 369 422 343 384 315 345 c 1
232 235 m 1
 225 226 216 215 207 205 c 0
 183 175 l 1
 212 175 l 2
 251 175 363 228 361 261 c 0
 361 275 359 283 335 283 c 0
 317 283 291 262 263 249 c 2
 232 235 l 1
175 165 m 1
 123 100 75 41 17 -25 c 1
 -11 -7 l 1
 35 51 79 101 123 155 c 1
 91 129 65 106 43 87 c 0
 27 74 17 64 0 50 c 1
 -11 60 l 1
 0 70 l 2
 16 85 25 95 42 109 c 0
 69 133 121 177 183 230 c 1
 310 396 461 623 548 621 c 0
 569 621 589 613 588 587 c 0
 586 548 416 401 258 268 c 1
 271 276 l 2
 297 293 316 302 348 304 c 0
 389 307 400 283 397 257 c 0
 393 223 368 206 332 187 c 0
 315 178 303 172 284 168 c 1
 285 160 285 153 284 144 c 0
 275 106 189 58 191 26 c 0
 191 5 202 -7 219 -7 c 0
 241 -7 260 13 281 33 c 2
 321 71 l 1
 334 62 l 1
 288 19 l 2
 273 5 241 -25 219 -27 c 0
 193 -29 171 -12 169 19 c 0
 167 71 247 123 242 153 c 0
 239 169 219 165 204 165 c 2
 175 165 l 1
EndSplineSet
Substitution: 0 65534 'high' k.high
EndChar
StartChar: l
Encoding: 108 108 59
Width: 185
Flags: W
Fore
227 277 m 1
 365 401 494 516 494 540 c 0
 494 553 489 557 476 556 c 0
 447 553 333 417 227 277 c 1
129 189 m 1
 151 217 174 246 195 273 c 0
 295 400 416 573 482 574 c 4
 509 574 517 562 514 540 c 0
 509 501 343 359 181 214 c 1
 163 189 147 165 131 143 c 1
 99 94 52 43 49 15 c 0
 49 6 50 -3 61 -4 c 0
 86 -7 107 1 127 19 c 2
 185 70 l 1
 199 61 l 1
 185 50 l 1
 139 5 l 2
 113 -19 86 -27 53 -27 c 0
 33 -26 19 -13 19 12 c 0
 19 33 42 71 75 117 c 1
 64 107 54 97 44 88 c 0
 29 73 17 64 0 50 c 1
 -10 59 l 1
 0 70 l 1
 13 81 23 91 34 101 c 0
 63 129 95 158 129 189 c 1
EndSplineSet
Substitution: 0 65534 'high' l.high
EndChar
StartChar: m
Encoding: 109 109 60
Width: 512
Flags: W
Fore
489 47 m 0
 499 55 505 61 512 70 c 1
 523 68 l 1
 512 50 l 1
 501 37 493 29 479 19 c 0
 453 -1 427 -26 391 -27 c 0
 355 -27 331 7 362 42 c 2
 515 215 l 2
 523 224 537 247 509 247 c 0
 490 247 456 233 435 209 c 1
 215 -27 l 1
 195 -9 l 1
 387 219 l 2
 399 233 390 244 376 244 c 0
 336 244 295 211 259 173 c 2
 67 -29 l 1
 47 -13 l 1
 240 217 l 2
 248 227 255 251 241 251 c 0
 222 251 209 241 179 213 c 2
 0 50 l 1
 -11 61 l 1
 169 232 l 2
 191 253 203 266 239 268 c 0
 290 271 276 236 268 215 c 2
 264 204 l 1
 277 219 288 228 305 239 c 0
 329 253 348 265 375 265 c 0
 413 265 419 252 417 231 c 1
 416 217 l 1
 426 229 435 236 448 244 c 0
 470 257 489 265 512 265 c 0
 560 264 563 221 537 192 c 2
 391 26 l 2
 383 17 380 -2 393 -4 c 0
 419 -8 457 20 489 47 c 0
EndSplineSet
Substitution: 0 65534 'high' m.high
EndChar
StartChar: n
Encoding: 110 110 61
Width: 413
Flags: W
Fore
413 264 m 0
 443 263 472 229 439 192 c 2
 296 32 l 2
 283 17 281 1 292 -5 c 0
 315 -18 364 20 390 47 c 0
 398 55 406 61 413 70 c 1
 425 68 l 1
 413 50 l 2
 403 36 393 29 383 18 c 0
 359 -8 328 -29 293 -27 c 0
 258 -24 240 13 269 46 c 2
 419 212 l 2
 432 227 432 243 408 244 c 0
 362 245 338 227 309 196 c 2
 103 -27 l 1
 83 -11 l 1
 272 217 l 1
 281 229 265 250 249 249 c 0
 218 247 203 237 182 218 c 2
 0 50 l 1
 -16 55 l 1
 168 232 l 2
 190 253 213 265 240 268 c 0
 263 270 281 265 293 247 c 0
 299 238 301 231 301 220 c 1
 319 235 l 2
 348 259 378 266 413 264 c 0
EndSplineSet
Substitution: 0 65534 'high' n.high
EndChar
StartChar: o
Encoding: 111 111 62
Width: 469
Flags: HW
Fore
331 247 m 0
 333 267 323 271 307 271 c 0
 270 271 85 123 79 37 c 0
 79 27 80.9219 12 107 12 c 0
 177 12 327 185 331 247 c 0
160.316 214.189 m 1
 209.271 258.705 265.892 292 313 292 c 4
 341.016 292 350 275 350 255 c 1
 352 249 355 243 359 237 c 0
 373 217 391 213 415 213 c 0
 440 212 457 215 469 221 c 1
 483 216 l 1
 469 201 l 1
 455 196 429 192 405 192 c 0
 379 192 363 199 343 212 c 1
 310 107 167 -9 91 -9 c 0
 62.9844 -9 46 5 46 33 c 0
 46.286 57.027 59.4173 88.4993 80.5494 121.192 c 1
 63 104 l 0
 46 87 36 78 17 63 c 0
 11 59 7 55 0 50 c 1
 -9 57 l 1
 0 70 l 1
 4 74 7 76 11 80 c 0
 69.3821 134.089 104.176 171.225 160.316 214.189 c 1
EndSplineSet
Substitution: 0 65534 'high' o.high
EndChar
StartChar: p
Encoding: 112 112 63
Width: 295
Flags: HW
Fore
336 228 m 0
 335 256 326 252 312 255 c 0
 272 262 90 115 83 24 c 0
 81 9 95 -1 112 -4 c 0
 161 -14 338 151 336 228 c 0
163 223 m 1
 173 231 183 241 195 251 c 1
 121 161 l 1
 111 151 105 145 95 135 c 0
 94 135 94 135 93 134 c 0
 119 167 140 193 163 222 c 1
 163 222 164 223 163 223 c 1
 184 248 205 275 230 307 c 0
 260 345 277 367 307 405 c 1
 339 403 l 1
 321 375 311 360 291 333 c 0
 265 295 243 267 220 239 c 1
 253 260 285 274 312 275 c 0
 352 275 354 253 355 229 c 0
 357 151 260 49 178 0 c 1
 180 0 183 1 185 1 c 0
 226 4 255 29 275 50 c 2
 295 70 l 1
 306 67 l 1
 295 50 l 1
 279 33 l 2
 249 0 220 -17 177 -22 c 0
 148 -25 131 -31 101 -28 c 0
 99 -28 98 -28 96 -28 c 0
 55 -25 49 7 49 20 c 0
 49 21 49 21 49 21 c 1
 27 -7 3 -37 -26 -72 c 0
 -100 -162 -143 -211 -221 -299 c 1
 -244 -285 l 1
 -175 -203 -138 -157 -71 -75 c 0
 -17 -7 13 33 67 101 c 0
 77 113 85 123 93 133 c 1
 59 100 37 81 0 50 c 1
 -10 59 l 1
 0 70 l 1
 41 110 65 132 107 171 c 0
 129 191 145 205 163 222 c 1
 163 223 l 1
93 134 m 1
 93 133 l 1
 93 134 l 1
EndSplineSet
Substitution: 0 65534 'high' p.high
EndChar
StartChar: q
Encoding: 113 113 64
Width: 317
Flags: W
Fore
63 0 m 0
 88 -11 213 89 237 120 c 2
 311 212 l 2
 316 219 348 257 326 257 c 0
 246 257 11 23 63 0 c 0
183 7 m 1
 195 4 212 1 227 7 c 0
 253 17 271 27 293 47 c 2
 317 69 l 1
 335 66 l 1
 317 49 l 1
 299 32 l 1
 277 9 259 0 229 -10 c 0
 213 -15 204 -12 188 -9 c 1
 189 -21 191 -27 188 -39 c 0
 157 -169 67 -337 -13 -329 c 0
 -37 -327 -54 -317 -61 -289 c 0
 -77 -223 29 -120 113 -31 c 2
 185 44 l 1
 159 24 l 2
 123 -3 95 -21 58 -21 c 0
 -4 -21 23 49 50 81 c 0
 61 95 71 109 78 117 c 2
 90 129 l 1
 42 87 l 2
 32 78 27 72 17 63 c 0
 11 58 7 55 0 50 c 1
 -10 59 l 1
 0 70 l 2
 4 74 7 76 11 80 c 0
 127 189 271 300 346 269 c 0
 351 267 353 265 357 261 c 1
 375 281 l 1
 393 268 l 1
 244 80 l 2
 225 56 205 32 183 7 c 1
172 -5 m 1
 73 -117 -35 -225 -33 -268 c 0
 -33 -308 -16 -309 -1 -309 c 0
 36 -309 104 -209 139 -127 c 0
 158 -82 167 -51 172 -5 c 1
EndSplineSet
Substitution: 0 65534 'high' q.high
EndChar
StartChar: r
Encoding: 114 114 65
Width: 433
Flags: HW
Fore
197 260 m 1
 188 247 179 234 167 219 c 0
 117 152 79 119 17 63 c 0
 12 59 6 54 0 50 c 1
 -9 57 l 1
 0 70 l 2
 3 73 7 77 11 80 c 0
 62 129 89 162 129 220 c 0
 153 256 167 278 188 317 c 1
 221 299 l 1
 221 298 l 1
 226 293 231 289 237 285 c 0
 269 266 301 275 341 277 c 0
 352 278 359 280 369 281 c 1
 369 256 l 1
 361 248 356 243 348 235 c 0
 297 180 251 113 253 65 c 0
 255 29 276 -5 313 -4 c 0
 351 -3 385 21 411 47 c 2
 433 70 l 1
 445 67 l 1
 433 50 l 1
 421 37 l 2
 388 -1 356 -25 311 -27 c 0
 255 -29 221 18 222 70 c 0
 222 109 264 169 298 212 c 0
 308 225 317 234 329 245 c 1
 317 241 307 238 293 237 c 0
 262 235 241 239 212 252 c 0
 206 255 201 257 197 260 c 1
EndSplineSet
Substitution: 0 1 ' RQD' r.alt
Substitution: 0 65534 'high' r.high
EndChar
StartChar: s
Encoding: 115 115 66
Width: 297
Flags: HW
Fore
55 123 m 5
 51 126 47 127 43 127 c 4
 29 127 22 112 19 98 c 4
 19 95 18 91 19 87 c 5
 32 101 43 112 55 123 c 5
22 68 m 5
 31 37 57 -1 85 0 c 4
 95 0 109 9 122 22 c 5
 102 51 85 87 69 108 c 5
 66 105 63 103 59 99 c 6
 22 68 l 5
93 127 m 5
 109 103 122 69 139 41 c 5
 168 78 197 131 217 175 c 4
 226 197 233 210 239 231 c 5
 223 219 207 206 185 191 c 4
 132 154 113 143 93 127 c 5
1 51 m 5
 0 49 l 5
 -9 56 l 5
 -3 66 l 5
 -4 73 -5 79 -5 85 c 4
 -5 120 9 156 43 159 c 4
 57 161 69 155 79 144 c 5
 88 151 97 158 107 165 c 4
 187 223 217 255 291 307 c 5
 319 299 l 5
 315 295 311 293 308 289 c 5
 294 258 280 241 265 207 c 4
 236 141 213 57 166 9 c 5
 175 2 186 -3 198 -4 c 4
 218 -6 256 30 275 48 c 6
 297 70 l 5
 309 67 l 5
 297 50 l 5
 283 35 l 6
 255 3 225 -26 192 -27 c 4
 175 -27 160 -19 147 -7 c 5
 130 -19 111 -26 87 -27 c 4
 47 -29 14 10 1 51 c 5
EndSplineSet
Substitution: 0 65534 'high' s.high
EndChar
StartChar: t
Encoding: 116 116 67
Width: 196
Flags: HW
Fore
178 241 m 1
 135 241 l 1
 135 263 l 1
 199 263 l 1
 226 290 254 319 287 352 c 1
 315 382 333 399 361 429 c 1
 389 429 l 1
 363 397 347 377 321 344 c 0
 301 319 279 291 257 263 c 1
 313 263 l 1
 313 241 l 1
 239 241 l 1
 159 140 78 39 80 20 c 0
 81 15 77 -3 97 -3 c 0
 117 -3 157 31 174 48 c 2
 196 70 l 1
 207 67 l 1
 196 50 l 1
 184 37 l 2
 153 2 120 -25 85 -27 c 0
 62 -27 42 -3 42 15 c 0
 42 55 93 109 135 162 c 0
 144 173 150 179 159 189 c 1
 0 50 l 1
 -9 57 l 1
 0 70 l 2
 3 73 7 77 11 80 c 0
 77 142 127 189 178 241 c 1
EndSplineSet
Substitution: 0 65534 'high' t.high
EndChar
StartChar: u
Encoding: 117 117 68
Width: 325
Flags: HW
Fore
215 262 m 1
 215 263 218 265 218 265 c 1
 233 233 l 1
 217 218 207 209 192 193 c 0
 149 147 94 90 83 69 c 0
 75 54 43 11 77 11 c 0
 109 10 217 115 296 192 c 0
 322 217 339 234 363 261 c 1
 379 227 l 1
 371 219 365 214 357 205 c 0
 311 153 281 122 235 67 c 0
 229 59 203 20 212 5 c 0
 223 -12 278 25 301 47 c 2
 325 70 l 1
 336 67 l 1
 325 50 l 1
 309 33 l 2
 287 9 245 -27 212 -27 c 0
 187 -27 155 -5 178 34 c 2
 187 49 l 1
 155 18 l 2
 125 -11 95 -27 56 -26 c 0
 35 -26 16 -11 16 9 c 0
 16 39 37 73 67 109 c 1
 0 50 l 1
 -9 57 l 1
 0 70 l 1
 215 262 l 1
EndSplineSet
Substitution: 0 65534 'high' u.high
EndChar
StartChar: v
Encoding: 118 118 69
Width: 605
Flags: HW
Fore
483 274 m 2
 483 259 486 249 495 237 c 0
 509 218 527 213 551 213 c 0
 576 212 593 215 605 221 c 1
 619 216 l 1
 605 201 l 1
 591 195 565 192 541 192 c 0
 511 192 491 204 473 225 c 1
 471 220 469 214 467 208 c 0
 429 115 296 3 229 -3 c 0
 198 -5 187 17 187 26 c 0
 183 106 325 188 329 239 c 0
 330 249 314 250 303 249 c 0
 211 237 108 146 17 63 c 0
 11 58 6 55 0 50 c 1
 -9 57 l 1
 1 69 l 2
 5 73 7 75 11 79 c 0
 96 163 241 277 314 275 c 0
 340 275 375 276 375 247 c 0
 377 168 219 82 227 39 c 0
 229 31 230 23 241 23 c 0
 273 24 437 128 453 248 c 0
 455 263 456 273 456 288 c 1
 483 275 l 1
 483 274 l 2
EndSplineSet
Substitution: 0 65534 'high' v.high
EndChar
StartChar: w
Encoding: 119 119 70
Width: 604
Flags: HW
Fore
1 71 m 1
 191 243 l 1
 212 267 l 1
 230 234 l 1
 216 219 206 210 192 195 c 0
 144 143 87 74 75 53 c 0
 67 39 51 11 83 11 c 0
 124 9 221 115 299 192 c 0
 325 217 341 234 365 261 c 1
 381 227 l 1
 373 219 367 213 360 205 c 0
 296 139 218 37 217 19 c 0
 217 11 219 1 227 0 c 0
 257 -4 436 119 453 248 c 0
 455 263 456 273 456 288 c 1
 483 275 l 1
 483 273 482 272 482 270 c 0
 483 257 487 247 495 237 c 0
 508 219 527 213 550 213 c 0
 575 212 592 216 604 221 c 1
 619 216 l 1
 604 201 l 1
 591 195 565 192 540 192 c 0
 510 192 490 205 472 225 c 1
 471 220 469 214 467 208 c 0
 442 133 289 -19 219 -27 c 0
 182 -30 170 9 184 33 c 2
 193 48 l 1
 162 19 l 2
 153 11 106 -28 62 -27 c 0
 35 -26 26 -11 26 13 c 0
 27 42 53 83 89 126 c 1
 1 50 l 1
 -9 58 l 1
 1 71 l 1
EndSplineSet
Substitution: 0 65534 'high' w.high
EndChar
StartChar: x
Encoding: 120 120 71
Width: 243
Flags: HW
Fore
189 235 m 1
 233 265 276 284 311 284 c 0
 335 284 349 271.235 349 252 c 0
 349 225 330 205 305 207 c 0
 267 209 289 263 316 245 c 0
 319 243 321 239 321 236 c 1
 327 239 331 242.917 331 249 c 0
 331 262 318 271 305 271 c 0
 222 271 79 97 79 52 c 0
 79 11 98 -4 120 -4 c 0
 169 -4 196 25 231 58 c 2
 243 69 l 1
 254 64 l 1
 243 50 l 1
 219 26 l 2
 183 -9 162.636 -27 112 -27 c 0
 84 -27 52 0 52 51 c 0
 52 66.1328 61 90 68 105 c 1
 0 50 l 1
 -15 59 l 1
 0 70 l 1
 77 143 l 2
 120 183 171 221 168 268 c 0
 167 291 113 299 109 282 c 0
 108 279 109 277 109 273 c 1
 112 277 116 279 121 279 c 0
 150 284 146 252 135 243 c 0
 119 231 93 235 86 260 c 0
 79 281 99 309 135 310 c 0
 167 311 196 283 192 251 c 0
 191 245 190 240 189 235 c 1
EndSplineSet
Substitution: 0 65534 'high' x.high
EndChar
StartChar: y
Encoding: 121 121 72
Width: 331
Flags: W
Fore
99 -135 m 1
 -7 -203 -101 -256 -100 -288 c 0
 -100 -303 -91 -306 -81 -306 c 0
 -43 -306 21 -233 99 -135 c 1
145 -27 m 0
 122 -27 111 -10 111 8 c 0
 110 73 259 190 271 229 c 0
 273 235 269 243 262 244 c 0
 229 248 111 149 26 73 c 2
 0 50 l 1
 -9 59 l 1
 0 70 l 1
 37 104 l 2
 116 177 208 259 269 259 c 0
 297 259 303 248 303 235 c 0
 303 179 143 41 141 9 c 0
 141 1 145 -7 153 -8 c 0
 181 -11 219 39 255 76 c 2
 307 128 l 2
 318 139 430 268 430 268 c 1
 448 249 l 1
 403 195 l 2
 349 130 293 57 239 -14 c 1
 259 1 278 18 295 35 c 2
 331 71 l 1
 342 62 l 1
 331 50 l 1
 303 21 l 2
 272 -11 235 -41 197 -69 c 1
 87 -211 -17 -330 -94 -332 c 0
 -105 -332 -130 -319 -130 -293 c 0
 -131 -233 5 -169 139 -85 c 1
 165 -49 193 -13 223 24 c 1
 194 -4 170 -27 145 -27 c 0
EndSplineSet
Substitution: 0 65534 'high' y.high
EndChar
StartChar: z
Encoding: 122 122 73
Width: 232
Flags: HW
Fore
165 -14 m 1
 46 -120 -103 -213 -105 -287 c 0
 -105 -299 -100 -312 -87 -313 c 0
 -11 -317 124 -134 165 -14 c 1
181 224 m 1
 193 236 200 245 200 253 c 0
 200 263 197 268 188 268 c 0
 175 268 173 258 172 248 c 0
 171 237 175 229 181 224 c 1
291 237 m 1
 302 246 313 255 327 265 c 1
 340 251 l 1
 296 215 271 195 226 161 c 0
 187 131 165 113 125 83 c 1
 133 85 139 86 147 86 c 0
 176 85 201 85 206 46 c 1
 232 70 l 1
 247 68 l 1
 232 50 l 1
 209 27 l 1
 207 25 l 1
 207 24 l 1
 204 -34 75 -332 -85 -330 c 0
 -97 -330 -130 -329 -128 -289 c 0
 -123 -189 44 -97 174 16 c 1
 176 26 177 35 177 43 c 0
 178 58 162 68 147 69 c 0
 122 72 108 61 88 47 c 2
 15 -1 l 1
 7 9 l 1
 289 239 130 103 189 156 c 0
 233 197 144 123 261 214 c 1
 255 212 247 209 240 207 c 0
 221 199 199 200 183 207 c 1
 147 169 84 123 35 80 c 2
 0 50 l 1
 -10 60 l 1
 0 70 l 1
 37 105 l 2
 79 143 137 183 171 214 c 1
 161 222 156 233 157 247 c 0
 159 266 170 283 193 281 c 0
 209 280 213 270 213 253 c 0
 213 244 206 232 194 218 c 1
 206 215 220 215 224 216 c 0
 237 219 247 219 260 224 c 0
 273 228 282 232 291 237 c 1
EndSplineSet
Substitution: 0 65534 'high' z.high
EndChar
StartChar: braceleft
Encoding: 123 123 74
Width: 219
Flags: W
Fore
26 192 m 0
 28 182 26 177 25 167 c 0
 8 59 -121 -49 -196 -196 c 0
 -206 -216 -220 -243 -208 -254 c 0
 -205 -257 -202 -259 -197 -260 c 1
 -206 -259 -215 -261 -219 -253 c 0
 -225 -239 -212 -203 -198 -176 c 0
 -124 -32 19 93 20 181 c 0
 20 189 19 189 16 193 c 0
 13 199 8 203 1 205 c 1
 12 206 19 205 30 209 c 0
 60 221 134 283 189 344 c 0
 269 433 303 495 391 579 c 0
 425 611 466 651 494 657 c 0
 505 660 511 658 522 657 c 1
 515 656 511 655 503 653 c 0
 475 647 418 597 377 550 c 0
 302 465 263 403 187 329 c 0
 135 277 91 239 41 209 c 0
 35 205 30 203 23 201 c 1
 25 197 25 195 26 192 c 0
EndSplineSet
EndChar
StartChar: braceright
Encoding: 125 125 75
Width: 219
Flags: HW
Fore
238 192 m 0
 245 196 248 197 255 201 c 1
 253 203 249 205 249 209 c 0
 241 314 405 466 476 598 c 0
 485 615 490 629 489 645 c 0
 488 654 477 656 469 657 c 1
 476 665 489 665 497 657 c 0
 503 652 505 646 503 639 c 0
 465 477 243 323 264 211 c 0
 265 203 275 207 283 205 c 1
 269 200 261 199 249 193 c 0
 46 77 3 -129 -211 -253 c 0
 -223 -259 -231 -257 -244 -260 c 0
 -236 -258 -231 -258 -224 -254 c 0
 -21 -134 24 69 238 192 c 0
EndSplineSet
EndChar
StartChar: exclamdown
Encoding: 161 161 87
Width: 211
Flags: HW
Fore
565 623 m 0
 567 681 648 681 652 623 c 0
 656 561 564 549 565 623 c 0
524 485 m 0
 457 377 377 265 305 163 c 0
 230 57 131 -79 89 -90 c 0
 71 -95 61 -101 43 -101 c 0
 31 -101 25 -95 15 -90 c 0
 -24 -72 114 71 193 163 c 0
 275 259 391 393 476 485 c 0
 492 502 503 518 526 518 c 0
 539 518 531 496 524 485 c 0
EndSplineSet
EndChar
StartChar: quotedblleft
Encoding: 170 8220 92
Width: 252
Flags: HW
Fore
429 445 m 0
 421 497 466 563 518 549 c 0
 527 547 533 545 541 539 c 1
 535 537 532 531 526 533 c 0
 510 538 469 536 458 479 c 0
 457 473 461 472 463 468 c 1
 467 473 469 475 475 476 c 0
 500 483 511 445 493 425 c 0
 471 400 433 417 429 445 c 0
317 491 m 0
 309 544 354 609 406 596 c 0
 415 593 421 591 429 586 c 1
 423 584 420 578 414 580 c 0
 398 585 357 583 346 526 c 0
 345 519 349 519 351 515 c 1
 355 519 357 521 363 523 c 0
 388 529 399 491 381 471 c 0
 359 447 321 463 317 491 c 0
EndSplineSet
EndChar
StartChar: endash
Encoding: 177 8211 90
Width: 224
Flags: W
Fore
42 163 m 1
 252 163 l 1
 241 140 l 1
 31 140 l 1
 42 163 l 1
EndSplineSet
EndChar
StartChar: quotedblright
Encoding: 186 8221 93
Width: 252
Flags: HW
Fore
436 529 m 0
 443 477 399 411 347 425 c 0
 337 427 332 429 324 435 c 1
 329 437 333 443 339 441 c 0
 355 436 395 438 407 495 c 0
 408 501 404 502 402 506 c 1
 398 501 395 499 389 498 c 0
 365 491 354 529 372 549 c 0
 394 574 432 557 436 529 c 0
562 557 m 0
 569 505 525 439 473 453 c 0
 463 455 458 457 450 463 c 1
 455 465 459 471 465 469 c 0
 481 464 521 466 533 523 c 0
 534 529 530 530 528 534 c 1
 524 529 521 527 515 526 c 0
 491 519 480 557 498 577 c 0
 520 602 558 585 562 557 c 0
EndSplineSet
EndChar
StartChar: questiondown
Encoding: 191 191 86
Width: 340
Flags: HW
Fore
437 447 m 0
 437 399 364 399 364 447 c 0
 364 496 437 496 437 447 c 0
205 245 m 1
 263 287 282 325 333 376 c 2
 359 403 l 1
 373 389 l 1
 349 360 l 2
 289 287 289 213 184 181 c 0
 131 164 78 141 73 97 c 0
 69 68 96 45 119 45 c 0
 183 43 249 83 251 119 c 0
 253 147 230 145 210 138 c 0
 195 133 188 125 177 113 c 0
 165 101 158 92 151 77 c 1
 141 82 l 1
 151 105 160 119 179 136 c 0
 192 148 200 157 217 162 c 0
 248 170 277 163 277 125 c 0
 277 59 207 13 136 6 c 0
 75 0 31 35 27 70 c 0
 22 109 23 178 102 209 c 0
 142 224 169 221 205 245 c 1
EndSplineSet
EndChar
StartChar: emdash
Encoding: 208 8212 91
Width: 364
Flags: W
Fore
42 163 m 1
 392 163 l 1
 381 140 l 1
 31 140 l 1
 42 163 l 1
EndSplineSet
EndChar
StartChar: germandbls
Encoding: 251 223 1
Width: 494
Flags: HW
Fore
252 123 m 1
 248 126 244 127 240 127 c 0
 226 127 219 112 216 98 c 0
 216 95 215 91 216 87 c 1
 229 101 240 112 252 123 c 1
219 68 m 1
 228 37 254 -1 282 0 c 0
 292 0 306 9 319 22 c 1
 299 51 282 87 266 108 c 1
 263 105 260 103 256 99 c 2
 219 68 l 1
290 127 m 1
 306 103 319 69 336 41 c 1
 365 78 394 131 414 175 c 0
 423 197 430 210 436 231 c 1
 420 219 404 206 382 191 c 0
 329 154 310 143 290 127 c 1
276 340 m 1
 449 495 553 574 549 624 c 0
 547 639 536 645 523 644 c 0
 475 641 369 484 276 340 c 1
-44 -117 m 1
 -149 -175 -241 -225 -245 -279 c 0
 -246 -293 -245 -312 -223 -312 c 0
 -179 -312 -116 -231 -44 -117 c 1
161 15 m 0
 117 -22 65 -55 13 -85 c 1
 -79 -226 -165 -337 -226 -333 c 0
 -264 -331 -272 -312 -271 -283 c 0
 -270 -209 -150 -154 -24 -85 c 1
 25 -6 79 85 133 174 c 1
 93 132 57 96 0 50 c 2
 -10 42 l 1
 -11 59 l 1
 0 70 l 2
 70 144 111 187 181 252 c 1
 203 287 225 319 246 351 c 0
 341 488 443 663 523 665 c 0
 554 665 567 653 567 620 c 0
 565 549 381 411 235 276 c 1
 233 271 230 267 227 263 c 0
 165 165 98 49 33 -53 c 1
 76 -28 117 -1 153 30 c 0
 170 45 177 52.75 194 66 c 1
 192 71.5 192 79 192 85 c 0
 192 120 206 156 240 159 c 0
 254 161 266 155 276 144 c 1
 285 151 294 158 304 165 c 0
 384 223 414 255 488 307 c 1
 516 299 l 1
 512 295 508 293 505 289 c 1
 491 258 477 241 462 207 c 0
 433 141 410 57 363 9 c 1
 372 2 383 -3 395 -4 c 0
 415 -6 453 30 472 48 c 2
 494 70 l 1
 506 67 l 1
 494 50 l 1
 480 35 l 2
 452 3 422 -26 389 -27 c 0
 372 -27 357 -19 344 -7 c 1
 327 -19 308 -26 284 -27 c 4
 244 -29 211 10 198 51 c 1
 186.505 39.5054 177.808 28.6568 161 15 c 0
EndSplineSet
Substitution: 0 65534 'high' germandbls.high
EndChar
StartChar: q.high
Encoding: 256 -1 89
Width: 197
Flags: W
Fore
51 -15 m 1
 -47 -128 -151 -238 -152 -268 c 0
 -153 -308 -135 -309 -120 -309 c 0
 -83 -309 -15 -210 20 -127 c 0
 38 -85 47 -55 51 -15 c 1
-66 0 m 0
 -41 -11 83 89 108 120 c 2
 181 212 l 2
 193 227 215 257 197 257 c 0
 117 257 -119 23 -66 0 c 0
173 273 m 0
 195 279 217 278 229 269 c 0
 233 266 235 265 239 261 c 1
 258 281 l 1
 275 268 l 1
 133 84 l 2
 113 59 91 32 69 5 c 1
 80 3 94 1 107 6 c 0
 133 16 151 26 173 47 c 2
 197 69 l 1
 215 65 l 1
 197 49 l 1
 179 31 l 2
 157 9 139 -1 109 -11 c 0
 94 -15 85 -13 69 -11 c 1
 70 -21 72 -28 69 -39 c 0
 38 -169 -51 -337 -132 -329 c 0
 -156 -327 -173 -317 -179 -289 c 0
 -195 -223 -85 -123 -7 -31 c 1
 55 44 l 1
 29 23 l 2
 4 3 -21 -17 -62 -21 c 0
 -105 -26 -112 0 -108 21 c 0
 -96 82 -8 173 77 227 c 1
 69 225 49 218 41 215 c 0
 25 210 16 207 0 201 c 1
 -13 209 l 1
 0 221 l 1
 14 225 22 227 36 232 c 0
 87 248 122 257 173 273 c 0
EndSplineSet
EndChar
StartChar: a.high
Encoding: 257 -1 76
Width: 185
Flags: W
Fore
34 201 m 0
 43 209 49 214 59 221 c 1
 43 216 33 212 16 207 c 0
 10 205 6 203 0 201 c 1
 -13 209 l 1
 0 221 l 1
 13 225 20 227 33 231 c 0
 86 250 120 265 165 275 c 0
 174 276 189 278 215 269 c 0
 220 268 223 264 226 261 c 1
 245 281 l 1
 266 265 l 1
 127 95 l 1
 71 25 48 -9 78 -11 c 0
 101 -11 133 20 161 46 c 0
 171 54 177 61 185 70 c 1
 203 68 l 1
 185 50 l 1
 180 43 174 37 167 31 c 0
 135 -1 109 -27 66 -27 c 0
 28 -27 32 7 44 25 c 2
 58 45 l 1
 49 38 42 33 33 27 c 0
 -6 1 -43 -27 -76 -27 c 0
 -138 -27 -108 48 -81 81 c 0
 -40 131 -14 161 34 201 c 0
-69 -5 m 0
 -45 -16 83 89 108 120 c 2
 181 212 l 2
 192 226 215 257 197 257 c 0
 117 257 -122 17 -69 -5 c 0
EndSplineSet
EndChar
StartChar: c.high
Encoding: 258 -1 77
Width: 188
Flags: HW
Fore
188 50 m 2
 183 45 180 41 175 35 c 1
 135 -3 59 -38 -5 -28 c 0
 -77 -17 -84 55 -27 130 c 0
 34 210 143 288 189 288 c 0
 217 288 239 271 240 246 c 0
 241 221 229 198 197 200 c 0
 164 202 162 243 202 245 c 0
 210 246 215 241 219 234 c 1
 223 241 223 247 219 254 c 0
 215 263 207 268 197 268 c 0
 125 267 -21 104 -35 42 c 0
 -43 7 -23 -1 11 -5 c 0
 64 -11 139 20 171 54 c 0
 177 61 181 63 188 70 c 1
 201 65 l 1
 188 50 l 2
150 277 m 1
 63 222 l 1
 55 219 49 218 41 215 c 0
 25 210 16 207 0 201 c 1
 -13 209 l 1
 0 221 l 1
 14 225 22 227 36 232 c 0
 81 247 107 257 150 277 c 1
EndSplineSet
EndChar
StartChar: joiner
Encoding: 259 -1 78
Width: 0
Flags: W
Fore
-79 3 m 1
 -69 9 l 2
 -54 19 -41 31 -24 46 c 0
 -14 55 -9 60 0 70 c 1
 17 86 l 1
 19 66 l 1
 0 50 l 1
 -6 43 -11 38 -18 31 c 0
 -36 13 -54 -3 -69 -9 c 2
 -87 -16 l 1
 -79 3 l 1
EndSplineSet
EndChar
StartChar: longs
Encoding: 260 383 79
Width: 197
Flags: W
Fore
276 340 m 1
 449 495 553 574 549 624 c 0
 547 639 536 645 523 644 c 0
 475 641 369 484 276 340 c 1
-44 -117 m 1
 -149 -175 -241 -225 -245 -279 c 0
 -246 -293 -245 -312 -223 -312 c 0
 -179 -312 -116 -231 -44 -117 c 1
235 276 m 1
 233 271 230 267 227 263 c 0
 165 165 98 49 33 -53 c 1
 76 -28 117 -1 153 30 c 0
 170 45 182 53 198 70 c 2
 210 83 l 1
 209 61 l 1
 197 50 l 2
 186 40 177 28 161 15 c 0
 117 -22 65 -55 13 -85 c 1
 -79 -226 -165 -337 -226 -333 c 0
 -264 -331 -272 -312 -271 -283 c 0
 -270 -209 -150 -154 -24 -85 c 1
 25 -6 79 85 133 174 c 1
 93 132 57 96 0 50 c 2
 -10 42 l 1
 -11 59 l 1
 0 70 l 2
 70 144 111 187 181 252 c 1
 203 287 225 319 246 351 c 0
 341 488 443 663 523 665 c 0
 554 665 567 653 567 620 c 0
 565 549 381 411 235 276 c 1
EndSplineSet
Substitution: 0 65534 'high' longs.high
EndChar
StartChar: r.alt
Encoding: 261 -1 80
Width: 515
Flags: HW
Fore
374 235 m 5
 361 229 349 222 336 211 c 4
 269 156 226 114 171 40 c 6
 139 -3 l 5
 93 -3 l 5
 128 40 l 6
 161 81 177 107 211 147 c 4
 239 181 274 228 272 244 c 4
 271 250 267 255 261 256 c 4
 198 260 113 137 17 63 c 4
 11 58 7 55 0 50 c 5
 -9 57 l 5
 0 70 l 5
 4 74 7 76 11 80 c 4
 106 169 192 283 275 285 c 4
 299 286 327 267 321 244 c 6
 313 212 l 5
 335 232 351 243 373 255 c 4
 391 264 402 269 421 275 c 5
 424 256 l 5
 415 252 407 249 399 246 c 5
 399 242 401 239 403 235 c 4
 415 215 432 209 454 205 c 4
 479 201 498 205 519 219 c 5
 534 216 l 5
 519 199 l 5
 497 186 481 182 455 185 c 4
 417 189 392 204 374 235 c 5
EndSplineSet
Substitution: 0 65534 'high' r.alt.high
EndChar
StartChar: e.high
Encoding: 262 -1 81
Width: 185
Flags: W
Fore
61 176 m 1
 67 177 72 177 79 178 c 0
 147 187 229 243 230 271 c 0
 230 278 219 277 213 276 c 0
 180 272 110 226 61 176 c 1
63 217 m 1
 57 215 53 215 47 213 c 0
 40 211 35 209 27 207 c 0
 17 204 11 203 0 201 c 1
 -13 209 l 1
 0 221 l 1
 18 224 28 227 45 232 c 0
 63 237 73 241 89 248 c 0
 99 252 106 255 114 259 c 1
 146 281 173 291 225 296 c 0
 247 298 251 275 249 261 c 0
 243 231 179 184 109 166 c 0
 84 160 69 158 45 159 c 1
 39 153 33 145 28 138 c 0
 3 103 -16 64 -17 38 c 0
 -21 -48 143 17 185 69 c 2
 190 75 l 1
 198 65 l 1
 185 50 l 2
 139 -5 74 -32 -8 -28 c 0
 -85 -24 -53 73 -24 123 c 0
 2 169 14 178 63 217 c 1
EndSplineSet
EndChar
StartChar: u.high
Encoding: 263 -1 82
Width: 289
Flags: HW
Fore
142 271 m 0
 160 268 176 257 177 239 c 0
 178 209 50 74 39 53 c 0
 33 42 13 11 47 10 c 0
 79 9 183 117 259 192 c 0
 285 217 302 234 326 261 c 1
 342 227 l 1
 334 219 328 214 321 205 c 0
 274 153 234 100 188 45 c 0
 182 37 167 16 176 3 c 0
 187 -15 242 25 265 47 c 2
 289 70 l 1
 306 66 l 1
 275 37 l 2
 243 7 207 -25 180 -27 c 0
 155 -28 128 -1 148 33 c 2
 157 48 l 1
 125 17 l 2
 95 -11 65 -27 26 -27 c 0
 7 -27 -9 -12 -9 8 c 0
 -9 89 144 208 142 235 c 0
 141 254 134 249 126 249 c 0
 109 250 54 219 22 209 c 2
 -1 201 l 1
 -12 210 l 1
 0 221 l 1
 15 225 l 2
 68 238 111 276 142 271 c 0
EndSplineSet
EndChar
StartChar: o.high
Encoding: 264 -1 83
Width: 357
Flags: HW
Fore
220 247 m 0
 221 267 212 271 196 271 c 0
 159 271 -26 123 -32 37 c 0
 -33 27 -31 14 -4 12 c 0
 69 7 216 185 220 247 c 0
232 212 m 1
 196 103 57 -13 -20 -9 c 0
 -49 -8 -65 5 -65 33 c 0
 -65 82 -8 164 59 221 c 1
 53 219 48 217 41 215 c 0
 25 210 16 207 0 201 c 1
 -13 209 l 1
 0 221 l 1
 14 225 22 227 36 232 c 0
 79 247 103 257 144 277 c 0
 163 285 185 291 201 292 c 0
 221 293 235 283 237 266 c 0
 238 254 241 247 248 237 c 0
 261 217 280 213 303 213 c 0
 329 212 345 215 357 221 c 1
 372 216 l 1
 357 201 l 1
 343 196 318 192 293 192 c 0
 266 192 255 197 232 212 c 1
EndSplineSet
EndChar
StartChar: p.high
Encoding: 265 -1 84
Width: 203
Flags: HW
Fore
245 228 m 0
 245 256 235 252 221 255 c 0
 181 262 -1 115 -8 24 c 0
 -9 9 5 -1 21 -4 c 0
 71 -14 247 151 245 228 c 0
-23 101 m 1
 18 154 42 185 76 227 c 1
 63 223 55 220 41 215 c 0
 25 210 16 207 0 201 c 1
 -13 209 l 1
 0 221 l 1
 14 224 22 227 36 232 c 0
 85 251 127 292 139 307 c 0
 169 345 187 367 217 405 c 1
 249 403 l 1
 230 375 220 360 201 333 c 0
 174 295 152 267 129 239 c 1
 162 260 194 274 221 275 c 0
 261 275 263 253 264 229 c 0
 266 151 169 49 87 0 c 0
 89 1 91 1 93 1 c 0
 134 4 163 29 183 50 c 2
 203 70 l 1
 214 67 l 1
 203 50 l 1
 187 33 l 2
 157 0 128 -17 85 -22 c 0
 56 -25 39 -31 9 -28 c 0
 8 -28 7 -28 5 -28 c 0
 -35 -25 -41 7 -41 20 c 0
 -41 21 -41 21 -41 21 c 1
 -64 -7 -87 -37 -117 -72 c 0
 -191 -162 -233 -211 -311 -299 c 1
 -335 -285 l 1
 -266 -203 -229 -157 -162 -75 c 0
 -107 -7 -78 33 -23 101 c 1
EndSplineSet
EndChar
StartChar: longs.high
Encoding: 266 -1 85
Width: 151
Flags: W
Fore
229 338 m 1
 443 480 486 591 499 620 c 0
 505 634 486 641 473 640 c 0
 425 637 321 481 229 338 c 1
-90 -117 m 1
 -195 -175 -287 -225 -291 -279 c 0
 -292 -293 -291 -312 -269 -312 c 0
 -225 -312 -162 -231 -90 -117 c 1
203 297 m 1
 196 285 189 274 181 263 c 0
 119 165 52 49 -13 -53 c 1
 30 -28 71 -1 107 30 c 0
 124 45 136 53 152 70 c 2
 164 83 l 1
 163 61 l 1
 151 50 l 2
 140 40 131 28 115 15 c 0
 71 -22 19 -55 -33 -85 c 1
 -125 -226 -211 -337 -272 -333 c 0
 -310 -331 -318 -312 -317 -283 c 0
 -316 -209 -196 -154 -70 -85 c 1
 -5 20 68 146 140 259 c 1
 108 240 87 229 11 204 c 2
 3 201 l 1
 -12 209 l 1
 -1 219 l 1
 9 223 l 2
 74 244 103 260 164 297 c 1
 200 351 l 0
 295 488 397 663 477 665 c 0
 508 665 535 665 534 632 c 0
 533 559 379 405 203 297 c 1
EndSplineSet
EndChar
StartChar: v.high
Encoding: 267 -1 96
Width: 455
Flags: HW
Fore
333 270 m 0
 334 257 337 247 346 237 c 1
 360 218 378 213 401 213 c 0
 427 212 443 215 455 221 c 1
 470 216 l 1
 455 201 l 1
 442 195 416 192 391 192 c 0
 362 192 342 204 324 225 c 1
 323 219 321 214 318 208 c 0
 280 115 102 -13 34 -11 c 0
 3 -10 0 15 -1 24 c 0
 -4 104 140 185 144 235 c 0
 145 251 135 249 127 249 c 0
 107 249 30 213 19 207 c 1
 12 205 7 203 0 201 c 1
 -13 209 l 1
 0 221 l 1
 5 222 8 223 12 225 c 0
 44 242 99 272 146 271 c 0
 165 270 181 263 177 234 c 0
 168 163 36 84 36 40 c 0
 36 31 40 24 51 24 c 0
 83 25 289 139 304 248 c 0
 306 263 307 273 307 288 c 1
 334 275 l 1
 334 273 333 271 333 270 c 0
EndSplineSet
EndChar
StartChar: w.high
Encoding: 268 -1 98
Width: 559
Flags: HW
Fore
437 273 m 0
 437 274 437 274 437 274 c 2
 437 259 441 249 449 237 c 0
 463 219 481 213 505 213 c 0
 530 212 547 216 559 221 c 1
 573 216 l 1
 559 201 l 1
 545 195 519 192 495 192 c 0
 465 192 444 205 426 226 c 1
 425 220 423 215 421 208 c 0
 396 133 243 -19 173 -27 c 0
 136 -30 126 4 138 25 c 2
 147 40 l 1
 116 11 l 2
 107 3 60 -36 16 -35 c 0
 -11 -34 -21 -19 -20 5 c 0
 -16 75 129 194 134 237 c 0
 136 253 125 250 116 249 c 0
 103 248 65 227 34 214 c 0
 21 209 13 205 0 200 c 1
 -13 209 l 1
 0 220 l 1
 19 227 30 233 49 239 c 0
 83 252 116 273 139 271 c 0
 157 269 177 252 170 235 c 0
 145 172 41 66 29 45 c 0
 21 31 5 3 37 3 c 0
 78 1 173 113 253 192 c 0
 279 217 295 234 319 261 c 1
 335 227 l 1
 327 219 321 213 314 205 c 0
 250 139 172 37 171 19 c 0
 171 11 173 1 181 0 c 0
 211 -4 390 119 407 248 c 0
 409 263 410 273 410 288 c 1
 437 275 l 2
 437 274 437 274 437 273 c 0
EndSplineSet
EndChar
StartChar: r.high
Encoding: 269 -1 99
Width: 365
Flags: HW
Fore
123 277 m 1
 111 267 102 259 88 249 c 4
 56 227 36 215 0 201 c 5
 -13 209 l 5
 0 221 l 5
 33 235 53 247 80 271 c 4
 101 289 113 301 129 325 c 1
 137 325 l 1
 153 301 168 280 198 277 c 0
 235 274 265 265 301 281 c 1
 301 253 l 1
 293 245 288 241 280 232 c 0
 229 177 183 120 180 67 c 0
 179 29 204 -8 241 -8 c 0
 277 -8 309 19 342 48 c 2
 365 69 l 1
 383 66 l 1
 353 37 l 2
 321 6 287 -25 244 -27 c 0
 197 -29 151 19 157 72 c 0
 163 127 194 164 232 212 c 0
 242 225 250 233 261 245 c 1
 233 238 216 241 187 244 c 0
 155 247 144 259 123 277 c 1
EndSplineSet
EndChar
StartChar: m.high
Encoding: 270 -1 100
Width: 413
Flags: HW
Fore
273 51 m 2
 419 212 l 2
 427 221 421 242 408 244 c 0
 392 247 359 239 340 217 c 2
 125 -27 l 1
 98 -9 l 1
 289 216 l 2
 301 230 289 242 277 243 c 0
 251 245 206 227 179 196 c 2
 -23 -33 l 1
 -51 -13 l 1
 141 217 l 2
 146 223 152 228 151 236 c 0
 149 243 147 250 136 249 c 0
 115 246 70 217 27 207 c 0
 17 205 10 202 0 201 c 1
 -13 209 l 1
 0 221 l 1
 17 224 29 227 45 232 c 0
 83 243 102 270 142 270 c 0
 167 270 171 263 175 248 c 0
 177 238 177 229 171 220 c 1
 183 231 193 237 208 245 c 0
 232 258 250 263 277 263 c 0
 293 263 311 258 317 241 c 0
 320 233 320 226 317 217 c 1
 326 229 334 237 347 245 c 0
 369 259 387 263 413 264 c 0
 437 265 474 231 439 192 c 2
 308 46 l 2
 293 29 272 -5 297 -7 c 0
 325 -8 370 29 389 48 c 2
 413 71 l 1
 427 63 l 1
 381 20 l 2
 356 -3 317 -27 290 -27 c 0
 255 -26 232 5 273 51 c 2
EndSplineSet
EndChar
StartChar: t.high
Encoding: 271 -1 101
Width: 76
Flags: HW
Fore
36 232 m 0
 79 249 107 269 133 303 c 1
 75 303 l 1
 75 324 l 1
 75 324 150 324 149 324 c 1
 233 429 l 1
 269 429 l 1
 187 324 l 1
 253 324 l 1
 253 303 l 1
 171 303 l 1
 8 93 l 1
 -17 62 -44 21 -40 9 c 0
 -39 5 -30 -5 -19 -5 c 0
 -6 -4 34 32 52 48 c 2
 76 69 l 1
 95 66 l 1
 64 37 l 2
 32 7 -5 -26 -31 -27 c 0
 -54 -27 -73 -16 -74 3 c 0
 -77 30 -41 81 -9 121 c 2
 73 226 l 1
 61 223 53 219 41 215 c 0
 26 211 15 206 0 201 c 1
 -13 209 l 1
 0 221 l 1
 14 223 23 227 36 232 c 0
EndSplineSet
EndChar
StartChar: y.high
Encoding: 272 -1 102
Width: 204
Flags: W
Fore
-29 -135 m 1
 -134 -203 -228 -256 -227 -288 c 0
 -227 -303 -219 -306 -209 -306 c 0
 -171 -306 -106 -233 -29 -135 c 1
183 133 m 1
 183 133 l 1
 183 133 l 1
236 195 m 1
 303 268 l 1
 321 249 l 1
 276 195 l 2
 221 130 166 57 112 -14 c 1
 132 1 151 18 168 35 c 2
 204 71 l 1
 215 62 l 1
 204 50 l 1
 175 21 l 2
 145 -11 108 -41 70 -69 c 1
 -41 -211 -144 -330 -221 -332 c 0
 -233 -332 -257 -319 -257 -293 c 0
 -259 -233 -122 -169 11 -85 c 1
 41 -46 72 -5 104 35 c 1
 88 20 l 2
 61 -6 27 -23 1 -23 c 0
 -21 -23 -33 -10 -33 8 c 0
 -33 73 124 186 136 225 c 0
 137 231 133 239 127 239 c 0
 103 237 73 223 34 213 c 0
 22 209 13 205 0 201 c 1
 -13 209 l 1
 0 221 l 1
 14 225 23 228 37 232 c 0
 76 243 83 258 137 261 c 0
 157 262 164 247 163 231 c 0
 161 170 -1 41 -2 9 c 0
 -2 1 1 -7 9 -8 c 0
 37 -11 78 43 123 73 c 1
 183 133 l 1
 201 154 219 175 236 195 c 1
EndSplineSet
EndChar
StartChar: i.high
Encoding: 273 -1 104
Width: 74
Flags: HW
Fore
208 343 m 0
 208 318 171 318 171 343 c 0
 171 367 208 367 208 343 c 0
146 271 m 1
 21 104 l 2
 3 79 -53 3 -15 -3 c 0
 -6 -5 28 26 51 48 c 2
 73 70 l 1
 84 69 l 1
 82 59 l 1
 57 32 l 2
 29 3 -4 -27 -29 -27 c 0
 -107 -25 -36 77 1 124 c 2
 82 229 l 1
 65 223 56 219 41 215 c 0
 25 211 15 206 0 201 c 1
 -13 209 l 1
 0 221 l 1
 14 224 23 227 36 232 c 0
 73 246 95 260 125 285 c 1
 146 271 l 1
EndSplineSet
EndChar
StartChar: s.high
Encoding: 274 -1 105
Width: 137
Flags: HW
Fore
-35 19 m 1
 -58 56 -71 103 -101 107 c 0
 -131 110 -157 93 -165 65 c 0
 -175 29 -152 -9 -105 -9 c 0
 -73 -9 -51 3 -35 19 c 1
-19 -3 m 1
 -43 -16 -71 -25 -104 -27 c 0
 -166 -29 -183 11 -187 49 c 0
 -191 95 -147 133 -100 129 c 0
 -65 127 -43 77 -20 38 c 1
 -5 63 7 92 23 119 c 0
 41 149 57 164 72 196 c 0
 78 209 85 219 91 232 c 1
 75 226 65 222 49 217 c 0
 30 211 19 206 0 201 c 1
 -13 209 l 1
 0 221 l 1
 18 225 28 228 45 235 c 0
 92 253 118 273 156 305 c 0
 161 309 165 313 169 317 c 1
 185 315 l 1
 175 304 169 296 160 285 c 0
 103 223 106 159 79 111 c 0
 69 95 47 44 0 9 c 1
 9 -1 18 -7 29 -7 c 0
 55 -7 86 19 113 45 c 2
 137 67 l 1
 155 63 l 1
 125 34 l 2
 94 5 62 -26 33 -27 c 0
 10 -27 -6 -18 -19 -3 c 1
EndSplineSet
EndChar
StartChar: d.high
Encoding: 275 -1 106
Width: 187
Flags: W
Fore
-68 -5 m 0
 -43 -16 83 89 108 120 c 2
 181 212 l 2
 192 226 215 257 197 257 c 0
 117 257 -121 17 -68 -5 c 0
53 219 m 1
 49 218 46 217 41 215 c 0
 26 211 15 206 0 201 c 1
 -13 209 l 1
 0 221 l 1
 14 225 22 228 36 232 c 0
 61 240 82 247 102 253 c 1
 129 267 154 276 177 277 c 0
 179 277 180 277 181 278 c 1
 179 277 l 1
 192 277 205 275 217 269 c 0
 221 267 223 264 227 261 c 1
 526 620 l 1
 559 620 l 1
 113 80 l 2
 92 54 39 -11 81 -11 c 0
 104 -11 135 21 163 46 c 0
 172 54 179 61 187 70 c 1
 205 68 l 1
 187 50 l 2
 181 43 175 37 169 31 c 0
 137 0 112 -27 69 -27 c 0
 31 -27 39 13 49 33 c 2
 55 44 l 1
 29 24 l 2
 -6 -3 -36 -27 -73 -27 c 0
 -135 -27 -107 46 -79 81 c 0
 -41 130 5 181 53 219 c 1
EndSplineSet
EndChar
StartChar: f.high
Encoding: 276 -1 107
Width: 151
Flags: W
Fore
-90 -117 m 1
 -195 -175 -287 -225 -291 -279 c 0
 -292 -293 -291 -312 -269 -312 c 0
 -225 -312 -162 -231 -90 -117 c 1
262 335 m 1
 299 331 l 1
 295 303 l 1
 295 303 228 313 227 313 c 0
 219 307 211 302 203 297 c 1
 196 285 189 274 181 263 c 0
 119 165 52 49 -13 -53 c 1
 30 -28 71 -1 107 30 c 0
 124 45 136 53 152 70 c 2
 164 83 l 1
 163 61 l 1
 151 50 l 2
 140 40 131 28 115 15 c 0
 71 -22 19 -55 -33 -85 c 1
 -125 -226 -211 -337 -272 -333 c 0
 -310 -331 -318 -312 -317 -283 c 0
 -316 -209 -196 -154 -70 -85 c 1
 -5 20 68 146 140 259 c 1
 108 240 87 229 11 204 c 2
 3 201 l 1
 -12 209 l 1
 -1 219 l 1
 9 223 l 2
 74 244 103 260 164 297 c 1
 169 305 174 312 179 319 c 0
 179 320 126 327 126 327 c 1
 128 354 l 1
 196 345 l 1
 197 347 199 349 200 351 c 0
 295 488 397 663 477 665 c 0
 508 665 535 665 534 632 c 0
 533 567 412 439 262 335 c 1
230 340 m 1
 231 340 l 2
 444 481 486 591 499 620 c 0
 505 634 486 641 473 640 c 0
 425 637 321 483 230 340 c 1
EndSplineSet
EndChar
StartChar: g.high
Encoding: 277 -1 108
Width: 201
Flags: W
Fore
-72 -143 m 1
 -178 -203 -280 -260 -275 -295 c 0
 -273 -305 -271 -309 -257 -311 c 0
 -199 -317 -144 -248 -72 -143 c 1
-69 -5 m 0
 -45 -16 83 89 108 120 c 2
 181 212 l 2
 192 226 215 257 197 257 c 0
 117 257 -122 17 -69 -5 c 0
48 217 m 0
 47 217 44 216 42 215 c 0
 27 211 16 207 1 201 c 1
 -13 209 l 1
 1 221 l 1
 15 225 23 228 37 232 c 0
 60 239 78 245 96 251 c 1
 141 277 183 287 216 270 c 0
 221 268 223 265 227 262 c 1
 245 282 l 1
 267 267 l 1
 104 50 l 2
 78 15 51 -22 25 -60 c 1
 43 -49 61 -39 77 -29 c 0
 105 -13 141 14 177 47 c 2
 201 70 l 1
 211 60 l 1
 201 50 l 2
 151 0 119 -29 61 -66 c 0
 39 -79 16 -93 -9 -107 c 1
 -96 -229 -182 -337 -257 -335 c 0
 -274 -335 -299 -331 -299 -295 c 0
 -301 -242 -171 -169 -41 -97 c 1
 -23 -71 -5 -45 14 -17 c 2
 55 43 l 1
 29 23 l 2
 -6 -3 -39 -26 -61 -27 c 0
 -147 -29 -103 49 -72 91 c 0
 -39 135 4 182 48 217 c 0
EndSplineSet
EndChar
StartChar: h.high
Encoding: 278 -1 109
Width: 251
Flags: W
Fore
212 333 m 1
 227 345 l 0
 385 471 439 536 449 571 c 0
 451 581 445 595 434 595 c 0
 407 595 351 521 310 465 c 2
 212 333 l 1
141 284 m 1
 155 301 169 319 185 339 c 0
 273 453 369 618 433 616 c 0
 463 615 475 592 470 571 c 0
 453 508 317 382 181 292 c 1
 137 232 l 1
 156 247 173 255 191 267 c 0
 217 283 235 291 266 293 c 0
 300 296 319 278 305 232 c 0
 287 175 128 68 127 25 c 0
 126 13 129 -1 143 -2 c 0
 165 -4 202 24 220 41 c 2
 251 70 l 1
 260 59 l 1
 229 27 l 1
 199 -2 166 -28 136 -27 c 0
 99 -25 95 11 101 37 c 0
 119 126 262 192 278 259 c 0
 280 267 279 273 259 272 c 0
 169 267 54 107 -53 -7 c 0
 -60 -14 -67 -19 -73 -27 c 1
 -89 3 l 1
 -61 40 -37 70 -5 112 c 1
 40 168 75 207 113 250 c 1
 89 237 66 225 44 216 c 0
 28 209 17 206 0 201 c 1
 -10 206 l 1
 0 220 l 1
 12 223 19 225 31 230 c 0
 77 249 110 265 141 284 c 1
EndSplineSet
EndChar
StartChar: j.high
Encoding: 279 -1 110
Width: 75
Flags: HW
Fore
-152 -123 m 1
 -247 -184 -329 -233 -335 -273 c 0
 -338 -291 -337 -315 -316 -315 c 0
 -272 -313 -216 -218 -169 -149 c 0
 -163 -140 -157 -131 -152 -123 c 1
212 343 m 0
 212 318 175 318 175 343 c 0
 175 367 212 367 212 343 c 0
36 232 m 0
 73 246 93 257 123 281 c 0
 129 287 l 1
 149 271 l 1
 137 257 130 248 118 233 c 0
 80 186 59 157 25 108 c 0
 -19 46 -47 1 -79 -52 c 1
 -31 -21 15 12 51 47 c 2
 75 70 l 1
 85 71 l 1
 85 59 l 1
 75 50 l 1
 58 33 l 2
 11 -13 -47 -55 -104 -93 c 1
 -112 -105 -120 -119 -129 -133 c 0
 -187 -223 -252 -335 -317 -335 c 0
 -348 -335 -363 -308 -361 -281 c 0
 -357 -219 -243 -155 -126 -81 c 1
 -105 -47 -87 -15 -59 27 c 0
 -5 109 29 161 84 231 c 1
 69 225 57 221 41 215 c 0
 25 209 16 207 0 201 c 1
 -13 209 l 1
 0 221 l 1
 14 224 22 227 36 232 c 0
EndSplineSet
EndChar
StartChar: k.high
Encoding: 280 -1 111
Width: 259
Flags: HW
Fore
264 361 m 1
 382 445 498 545 499 579 c 0
 499 587 499 597 491 597 c 0
 441 600 399 540 357 485 c 0
 314 431 288 395 264 361 c 1
170 235 m 1
 163 226 154 215 145 205 c 0
 121 175 l 1
 150 175 l 2
 189 175 301 228 299 261 c 0
 299 275 297 283 273 283 c 0
 255 283 229 262 201 249 c 2
 170 235 l 1
113 165 m 1
 61 100 13 41 -45 -25 c 1
 -73 -7 l 1
 -7 76 53 142 117 226 c 0
 127 238 135 250 145 262 c 1
 109 242 77 227 55 220 c 0
 37 215 21 207 1 201 c 1
 -13 209 l 1
 0 220 l 1
 20 225 33 231 53 237 c 0
 82 247 125 270 173 299 c 1
 287 453 411 623 486 621 c 0
 507 621 527 613 526 587 c 0
 523 539 371 411 233 318 c 1
 222 303 210 286 195 267 c 1
 209 276 l 2
 235 293 254 302 286 304 c 0
 327 307 338 283 335 257 c 0
 331 223 306 206 270 187 c 0
 253 178 241 172 222 168 c 1
 223 160 223 153 222 144 c 0
 213 106 127 58 129 26 c 0
 129 5 140 -7 157 -7 c 0
 179 -7 198 13 219 33 c 2
 259 71 l 1
 272 62 l 1
 226 19 l 2
 211 5 179 -25 157 -27 c 0
 131 -29 109 -12 107 19 c 0
 105 71 185 123 180 153 c 0
 177 169 157 165 142 165 c 2
 113 165 l 1
EndSplineSet
EndChar
StartChar: l.high
Encoding: 281 -1 112
Width: 136
Flags: W
Fore
201 309 m 1
 350 399 446 513 446 540 c 0
 446 553 441 557 428 556 c 0
 402 553 299 439 201 309 c 1
156 283 m 1
 253 410 370 573 434 574 c 0
 461 574 469 562 466 540 c 0
 461 498 348 359 171 269 c 1
 139 226 109 183 83 143 c 0
 53 95 9 43 6 15 c 0
 5 6 7 -3 18 -4 c 0
 43 -7 82 19 112 48 c 2
 136 71 l 1
 149 62 l 1
 117 31 l 2
 83 -1 43 -27 10 -27 c 0
 -10 -26 -25 -13 -25 12 c 0
 -25 52 58 157 129 249 c 1
 105 238 81 229 56 221 c 0
 36 215 22 207 0 201 c 1
 -13 210 l 1
 0 221 l 1
 18 225 33 230 47 235 c 0
 85 249 121 265 156 283 c 1
EndSplineSet
EndChar
StartChar: apple
Encoding: 282 63743 113
Width: 882
Flags: W
Fore
453 345 m 0
 449 344 447 343 443 342 c 1
 495 342 l 1
 490 344 485 345 479 346 c 0
 475 347 473 347 468 347 c 2
 459 347 l 2
 457 347 455 345 453 345 c 0
337 -300 m 2
 265 -300 215 -305 155 -265 c 0
 58 -199 60 -88 60 34 c 2
 60 277 l 2
 60 399 53 507 155 574 c 0
 216 613 265 609 337 609 c 2
 520 609 l 2
 592 609 641 613 701 574 c 0
 804 507 797 399 797 277 c 2
 797 34 l 2
 797 -88 804 -198 701 -265 c 0
 641 -304 592 -300 520 -300 c 2
 337 -300 l 2
409 344 m 0
 405 343 403 343 399 342 c 1
 452 342 l 1
 445 343 442 344 435 345 c 0
 431 345 428 346 423 346 c 2
 415 346 l 2
 412 346 411 345 409 344 c 0
563 315 m 1
 567 309 571 307 579 307 c 0
 587 306 595 309 600 316 c 0
 603 321 606 327 604 333 c 0
 601 341 594 342 586 343 c 0
 578 343 572 341 567 335 c 1
 563 339 557 342 551 343 c 0
 543 343 537 341 531 335 c 1
 527 340 522 342 515 343 c 0
 507 343 501 340 497 335 c 1
 492 340 487 343 480 343 c 0
 473 343 467 340 463 335 c 1
 459 340 454 342 447 343 c 0
 439 343 433 341 429 335 c 1
 423 341 418 343 410 343 c 0
 403 343 399 340 394 335 c 1
 389 340 385 343 377 343 c 0
 370 343 364 340 359 335 c 1
 355 340 350 342 343 343 c 0
 335 343 329 341 323 335 c 1
 319 339 314 342 307 343 c 0
 299 343 293 341 288 335 c 1
 283 339 279 341 273 342 c 0
 265 343 257 340 252 333 c 0
 249 327 246 321 248 315 c 0
 251 309 258 308 265 307 c 0
 273 307 280 309 285 315 c 1
 289 311 294 309 300 308 c 0
 308 307 313 309 319 315 c 1
 323 310 328 308 335 307 c 0
 343 307 350 309 355 315 c 1
 359 311 363 308 369 307 c 0
 377 306 383 309 389 315 c 1
 393 310 397 307 404 307 c 0
 412 306 419 309 423 315 c 1
 427 310 432 307 439 307 c 0
 447 305 455 309 459 315 c 1
 463 310 467 308 473 307 c 0
 481 305 489 309 493 315 c 1
 497 310 501 307 507 307 c 0
 515 306 522 309 527 315 c 1
 531 309 535 307 543 307 c 0
 551 306 558 309 563 315 c 1
501 595 m 0
 473 593 456 562 461 535 c 0
 465 519 490 517 488 500 c 0
 487 493 483 491 477 490 c 0
 455 485 452 505 414 505 c 0
 381 506 373 464 349 477 c 0
 341 481 336 487 331 495 c 0
 327 500 325 503 323 508 c 1
 321 504 319 501 318 496 c 0
 315 482 334 472 333 461 c 0
 333 451 326 431 322 426 c 1
 327 432 345 439 353 438 c 0
 362 437 365 431 373 427 c 0
 383 422 390 419 401 416 c 1
 397 412 396 409 394 404 c 0
 388 387 400 376 408 361 c 0
 411 355 412 352 415 346 c 1
 422 346 l 1
 419 350 418 351 416 356 c 0
 409 373 397 396 411 407 c 0
 415 410 419 410 423 411 c 0
 431 413 437 413 445 413 c 1
 441 408 439 405 437 399 c 0
 433 385 445 378 451 365 c 0
 455 357 457 353 461 347 c 1
 466 346 l 1
 461 358 458 365 454 378 c 0
 451 387 445 392 448 401 c 0
 458 426 481 408 503 411 c 0
 528 415 540 435 541 453 c 0
 544 525 488 510 485 546 c 0
 485 554 494 557 501 559 c 0
 512 563 519 556 530 555 c 0
 547 555 557 555 573 559 c 1
 558 564 l 1
 571 569 l 1
 564 569 561 570 553 572 c 0
 546 574 541 575 535 579 c 0
 530 583 529 589 523 592 c 0
 516 597 509 596 501 595 c 0
594 190 m 1
 639 161 l 1
 604 161 l 1
 639 142 l 1
 604 142 l 1
 636 121 l 1
 604 121 l 1
 604 102 l 1
 584 102 l 1
 584 121 l 1
 552 121 l 1
 584 142 l 1
 552 142 l 1
 584 161 l 1
 553 161 l 1
 594 190 l 1
427 -44 m 1
 471 -71 l 1
 437 -71 l 1
 471 -92 l 1
 437 -92 l 1
 469 -112 l 1
 437 -112 l 1
 437 -131 l 1
 417 -131 l 1
 417 -112 l 1
 385 -112 l 1
 417 -92 l 1
 385 -92 l 1
 417 -71 l 1
 386 -71 l 1
 427 -44 l 1
259 190 m 1
 304 161 l 1
 269 161 l 1
 304 142 l 1
 269 142 l 1
 301 121 l 1
 269 121 l 1
 269 102 l 1
 249 102 l 1
 249 121 l 1
 217 121 l 1
 249 142 l 1
 217 142 l 1
 249 161 l 1
 219 161 l 1
 259 190 l 1
169 -111 m 0
 169 -112 427 146 427 146 c 1
 687 -115 l 1
 688 -110 688 -105 688 -100 c 2
 688 229 l 2
 688 244 694 253 706 263 c 0
 717 272 727 275 741 273 c 1
 741 300 l 1
 115 300 l 1
 115 273 l 1
 129 275 139 272 149 263 c 0
 161 253 168 244 168 229 c 2
 168 -100 l 2
 168 -104 169 -108 169 -111 c 0
644 -162 m 1
 427 52 l 1
 213 -162 l 1
 217 -163 221 -164 227 -164 c 2
 371 -164 l 2
 387 -164 401 -168 411 -177 c 0
 421 -185 426 -190 432 -201 c 1
 435 -191 440 -185 448 -177 c 0
 463 -163 475 -164 485 -164 c 2
 629 -164 l 2
 635 -164 639 -163 644 -162 c 1
EndSplineSet
EndChar
StartChar: z.high
Encoding: 283 -1 114
Width: 167
Flags: HW
Fore
101 -14 m 1
 -19 -120 -168 -213 -170 -287 c 0
 -170 -299 -165 -312 -151 -313 c 0
 -76 -317 59 -134 101 -14 c 1
99 265 m 1
 112 275 121 287 119 301 c 0
 119 305 115 307 111 309 c 0
 101 313 93 297 93 289 c 0
 92 280 94 272 99 265 c 1
219 231 m 1
 231 241 245 253 262 265 c 1
 275 251 l 1
 231 215 206 195 161 161 c 0
 123 131 100 113 61 83 c 1
 69 85 74 86 83 86 c 0
 111 85 137 85 141 46 c 1
 167 70 l 1
 183 68 l 1
 167 50 l 1
 144 27 l 1
 142 25 l 1
 142 24 l 1
 139 -34 11 -332 -150 -330 c 0
 -162 -330 -195 -329 -193 -289 c 0
 -188 -189 -21 -97 109 16 c 1
 111 26 113 35 113 43 c 0
 113 58 97 68 82 69 c 0
 57 72 43 61 23 47 c 2
 -50 -1 l 1
 -58 9 l 1
 225 239 65 103 124 156 c 0
 169 197 79 124 196 214 c 1
 189 213 182 212 175 212 c 0
 151 212 119 226 99 245 c 1
 81 232 55 218 27 210 c 0
 17 207 10 204 0 201 c 1
 -13 209 l 1
 0 221 l 1
 17 224 29 228 45 236 c 0
 59 243 75 250 88 258 c 1
 82 267 79 277 79 286 c 0
 81 305 95 323 114 322 c 0
 139 321 137 289 127 272 c 0
 125 267 119 260 110 253 c 1
 135 233 176 223 186 225 c 0
 198 228 209 229 219 231 c 1
EndSplineSet
EndChar
StartChar: x.high
Encoding: 284 -1 115
Width: 271
Flags: HW
Fore
113 129 m 1
 122 145 128 153 142 168 c 1
 155 187 163 203 164 215 c 0
 165 231 159 249 143 249 c 0
 115 251 76 225 27 210 c 0
 17 207 10 204 0 201 c 1
 -13 209 l 1
 0 221 l 1
 18 225 28 229 45 235 c 0
 79 246 109 266 129 269 c 0
 174 277 194 249 190 213 c 1
 242 255 301 285 339 284 c 0
 363 284 374 271 377 252 c 0
 381 227 358 205 333 207 c 0
 295 209 317 263 344 245 c 0
 347 243 349 239 349 236 c 1
 355 239 358 243 359 249 c 0
 360 262 346 271 333 271 c 0
 251 267 115 101 115 52 c 0
 115 25 121 -1 141 -4 c 0
 181 -11 224 25 259 58 c 2
 271 69 l 1
 282 64 l 1
 271 50 l 1
 247 26 l 2
 209 -11 174 -35 124 -27 c 0
 90 -21 84 19 87 57 c 1
 14 0 -14 -18 -60 -27 c 0
 -88 -32 -124 -14 -125 13 c 0
 -127 41 -104 66 -77 62 c 0
 -49 57 -47 38 -55 23 c 0
 -65 2 -98 10 -97 27 c 0
 -97 32 -94 36 -91 39 c 1
 -94 39 -97 40 -99 39 c 0
 -121 25 -105 -11 -67 -12 c 0
 -32 -13 64 66 113 129 c 1
EndSplineSet
EndChar
StartChar: b.high
Encoding: 285 -1 116
Width: 356
Flags: W
Fore
159 296 m 1
 332 405 416 525 413 554 c 0
 413 563 414 566 399 568 c 0
 371 572 306 476 267 428 c 0
 234 387 196 341 159 296 c 1
79 251 m 1
 117 297 158 343 197 386 c 0
 263 457 351 591 397 588 c 0
 419 587 432 583 429 554 c 0
 424 490 331 374 128 259 c 1
 37 149 -45 48 -47 20 c 0
 -48 7 -38 5 -29 4 c 0
 16 -1 202 154 209 248 c 0
 210 256 209 261 209 269 c 1
 233 269 l 1
 232 255 232 245 239 235 c 0
 257 209 286 205 319 209 c 0
 333 210 342 213 355 219 c 1
 369 211 l 1
 355 199 l 1
 343 193 337 191 324 187 c 0
 301 182 285 181 263 189 c 0
 247 195 237 201 225 215 c 1
 220 204 218 198 211 188 c 0
 143 82 15 -26 -39 -27 c 0
 -57 -27 -78 -12 -73 16 c 0
 -65 60 -12 138 55 221 c 1
 37 213 23 209 0 201 c 1
 -13 209 l 1
 0 221 l 1
 27 229 45 233 70 246 c 0
 73 247 76 249 79 251 c 1
EndSplineSet
EndChar
StartChar: n.high
Encoding: 286 -1 118
Width: 280
Flags: W
Fore
77 230 m 0
 61 221 45 217 25 210 c 0
 16 207 10 204 0 201 c 1
 -13 209 l 1
 0 221 l 1
 17 226 29 231 45 237 c 0
 72 247 88 269 119 268 c 0
 141 267 160 265 172 247 c 0
 177 238 180 231 180 220 c 1
 191 232 201 240 216 247 c 0
 243 261 261 264 292 265 c 0
 315 267 330 249 332 228 c 0
 333 213 327 203 317 192 c 2
 162 21 l 2
 150 7 159 -7 172 -7 c 0
 200 -5 247 27 267 47 c 2
 292 71 l 1
 305 62 l 1
 259 19 l 2
 235 -3 192 -25 165 -27 c 0
 129 -29 111 9 136 37 c 2
 297 212 l 2
 302 217 307 222 307 229 c 0
 307 239 296 243 287 244 c 0
 251 247 216 227 188 196 c 2
 -10 -27 l 1
 -35 -3 l 1
 151 217 l 1
 155 223 152 232 148 239 c 0
 143 246 136 247 128 249 c 0
 107 254 96 241 77 230 c 0
EndSplineSet
EndChar
StartChar: germandbls.high
Encoding: 287 -1 119
Width: 448
Flags: HW
Fore
206 123 m 5
 202 126 198 127 194 127 c 0
 180 127 173 112 170 98 c 0
 170 95 169 91 170 87 c 1
 183 101 194 112 206 123 c 5
173 68 m 1
 182 37 208 -1 236 0 c 0
 246 0 260 9 273 22 c 1
 253 51 236 87 220 108 c 1
 217 105 214 103 210 99 c 6
 173 68 l 1
244 127 m 1
 260 103 273 69 290 41 c 1
 319 78 348 131 368 175 c 0
 377 197 384 210 390 231 c 1
 374 219 358 206 336 191 c 4
 283 154 264 143 244 127 c 1
229 338 m 1
 443 480 486 591 499 620 c 0
 505 634 486 641 473 640 c 0
 425 637 321 481 229 338 c 1
-90 -117 m 1
 -195 -175 -287 -225 -291 -279 c 0
 -292 -293 -291 -312 -269 -312 c 0
 -225 -312 -162 -231 -90 -117 c 1
115 15 m 0
 71 -22 19 -55 -33 -85 c 1
 -125 -226 -211 -337 -272 -333 c 0
 -310 -331 -318 -312 -317 -283 c 0
 -316 -209 -196 -154 -70 -85 c 1
 -5 20 68 146 140 259 c 1
 108 240 87 229 11 204 c 2
 3 201 l 1
 -12 209 l 1
 -1 219 l 1
 9 223 l 2
 74 244 103 260 164 297 c 1
 200 351 l 0
 295 488 397 663 477 665 c 0
 508 665 535 665 534 632 c 0
 533 559 379 405 203 297 c 1
 196 285 189 274 181 263 c 0
 119 165 52 49 -13 -53 c 1
 30 -28 71 -1 107 30 c 0
 124 45 129 49.5 148 66 c 1
 147 73 146 79 146 85 c 0
 146 120 160 156 194 159 c 0
 208 161 220 155 230 144 c 1
 239 151 248 158 258 165 c 0
 338 223 368 255 442 307 c 1
 470 299 l 1
 466 295 462 293 459 289 c 1
 445 258 431 241 416 207 c 0
 387 141 364 57 317 9 c 1
 326 2 337 -3 349 -4 c 0
 369 -6 407 30 426 48 c 2
 448 70 l 1
 460 67 l 1
 448 50 l 1
 434 35 l 2
 406 3 376 -26 343 -27 c 0
 326 -27 311 -19 298 -7 c 1
 281 -19 262 -26 238 -27 c 0
 198 -29 165 10 152 51 c 1
 140.505 39.5054 131.808 28.6568 115 15 c 0
EndSplineSet
EndChar
StartChar: r.alt.high
Encoding: 288 -1 120
Width: 381
Flags: HW
Fore
88 247 m 0
 54.5283 227.311 36 215 0 201 c 1
 -13 209 l 1
 0 221 l 1
 33 235 47.5 248 80.5 268.5 c 0
 94.8135 277.392 118 285 138 285 c 0
 162.021 285 190 267 184 244 c 2
 176 212 l 1
 198 232 214 243 236 255 c 0
 254 264 265 269 284 275 c 1
 287 256 l 1
 278 252 270 249 262 246 c 1
 262 242 264 239 266 235 c 0
 278 215 295 209 317 205 c 0
 342 201 361 205 382 219 c 1
 397 216 l 1
 382 199 l 1
 360 186 344 182 318 185 c 0
 280 189 255 204 237 235 c 1
 224 229 212 222 199 211 c 0
 132 156 89 114 34 40 c 2
 2 -3 l 1
 -44 -3 l 1
 -9 40 l 2
 24 81 40 107 74 147 c 0
 102 181 137 228 135 244 c 0
 134 250 130.071 255.615 124 256 c 0
 106.254 257.127 96.5 252 88 247 c 0
EndSplineSet
EndChar
